<svg width="1600" height="1200" viewBox="0 0 1600 1200" fill="none" xmlns="http://www.w3.org/2000/svg">
<rect width="1600" height="1200" fill="#1A1A1A"/>
<g clip-path="url(#clip0_207_2182)">
<path d="M1401 172H198V1027H1401V172Z" fill="#F1F1F1"/>
<path d="M240.933 231.282H238.598L243.845 216.709H246.387L251.634 231.282H249.299L245.177 219.356H245.063L240.933 231.282ZM241.325 225.575H248.9V227.425H241.325V225.575ZM252.567 231.282V220.352H254.624V222.088H254.738C254.938 221.5 255.289 221.037 255.792 220.701C256.3 220.359 256.874 220.188 257.515 220.188C257.648 220.188 257.805 220.193 257.985 220.203C258.17 220.212 258.315 220.224 258.419 220.238V222.273C258.334 222.25 258.182 222.224 257.964 222.195C257.745 222.162 257.527 222.145 257.309 222.145C256.806 222.145 256.357 222.252 255.963 222.465C255.574 222.674 255.265 222.966 255.037 223.341C254.81 223.711 254.696 224.133 254.696 224.607V231.282H252.567ZM263.581 231.503C262.504 231.503 261.576 231.273 260.797 230.813C260.024 230.348 259.425 229.695 259.003 228.856C258.585 228.011 258.376 227.022 258.376 225.888C258.376 224.769 258.585 223.782 259.003 222.928C259.425 222.074 260.014 221.408 260.769 220.928C261.528 220.449 262.416 220.21 263.432 220.21C264.049 220.21 264.647 220.312 265.226 220.516C265.805 220.72 266.325 221.04 266.785 221.476C267.246 221.913 267.609 222.48 267.874 223.177C268.14 223.87 268.273 224.712 268.273 225.703V226.458H259.58V224.864H266.187C266.187 224.304 266.073 223.808 265.845 223.376C265.617 222.94 265.297 222.596 264.884 222.345C264.476 222.093 263.996 221.967 263.446 221.967C262.848 221.967 262.326 222.114 261.879 222.409C261.438 222.698 261.096 223.077 260.854 223.547C260.617 224.012 260.498 224.517 260.498 225.063V226.308C260.498 227.039 260.626 227.66 260.883 228.173C261.144 228.685 261.507 229.076 261.972 229.347C262.437 229.612 262.981 229.745 263.603 229.745C264.006 229.745 264.374 229.688 264.706 229.574C265.038 229.456 265.326 229.28 265.568 229.048C265.81 228.815 265.995 228.528 266.123 228.187L268.138 228.55C267.977 229.143 267.687 229.662 267.269 230.108C266.856 230.549 266.337 230.893 265.71 231.14C265.088 231.382 264.379 231.503 263.581 231.503ZM275.282 235.381C274.964 235.381 274.675 235.355 274.414 235.303C274.152 235.256 273.958 235.203 273.83 235.146L274.342 233.403C274.732 233.507 275.078 233.552 275.382 233.538C275.686 233.524 275.954 233.41 276.186 233.197C276.424 232.983 276.633 232.634 276.813 232.151L277.076 231.425L273.075 220.352H275.353L278.123 228.834H278.237L281.007 220.352H283.292L278.785 232.741C278.576 233.311 278.311 233.792 277.988 234.186C277.665 234.584 277.281 234.883 276.834 235.082C276.388 235.282 275.871 235.381 275.282 235.381ZM288.525 231.503C287.5 231.503 286.605 231.268 285.841 230.799C285.076 230.329 284.483 229.672 284.061 228.827C283.639 227.983 283.427 226.996 283.427 225.867C283.427 224.733 283.639 223.742 284.061 222.892C284.483 222.043 285.076 221.384 285.841 220.914C286.605 220.445 287.5 220.21 288.525 220.21C289.55 220.21 290.445 220.445 291.209 220.914C291.974 221.384 292.567 222.043 292.989 222.892C293.412 223.742 293.623 224.733 293.623 225.867C293.623 226.996 293.412 227.983 292.989 228.827C292.567 229.672 291.974 230.329 291.209 230.799C290.445 231.268 289.55 231.503 288.525 231.503ZM288.533 229.717C289.197 229.717 289.747 229.541 290.184 229.19C290.621 228.839 290.944 228.372 291.152 227.788C291.366 227.205 291.472 226.562 291.472 225.86C291.472 225.163 291.366 224.522 291.152 223.938C290.944 223.35 290.621 222.878 290.184 222.522C289.747 222.167 289.197 221.989 288.533 221.989C287.863 221.989 287.308 222.167 286.866 222.522C286.43 222.878 286.104 223.35 285.891 223.938C285.682 224.522 285.578 225.163 285.578 225.86C285.578 226.562 285.682 227.205 285.891 227.788C286.104 228.372 286.43 228.839 286.866 229.19C287.308 229.541 287.863 229.717 288.533 229.717ZM301.924 226.749V220.352H304.06V231.282H301.968V229.39H301.853C301.602 229.973 301.198 230.459 300.643 230.848C300.092 231.233 299.406 231.425 298.585 231.425C297.883 231.425 297.261 231.271 296.72 230.962C296.183 230.649 295.761 230.186 295.452 229.574C295.149 228.963 294.997 228.206 294.997 227.304V220.352H297.126V227.048C297.126 227.793 297.332 228.386 297.745 228.827C298.158 229.269 298.695 229.489 299.354 229.489C299.753 229.489 300.149 229.39 300.543 229.19C300.942 228.991 301.272 228.69 301.533 228.286C301.799 227.883 301.929 227.371 301.924 226.749ZM312.351 224.792V231.282H310.222V216.709H312.323V222.131H312.458C312.714 221.543 313.106 221.075 313.633 220.729C314.16 220.383 314.848 220.21 315.698 220.21C316.448 220.21 317.103 220.364 317.663 220.672C318.227 220.981 318.664 221.441 318.973 222.053C319.286 222.66 319.443 223.419 319.443 224.33V231.282H317.313V224.586C317.313 223.784 317.107 223.163 316.694 222.722C316.282 222.276 315.707 222.053 314.971 222.053C314.468 222.053 314.017 222.16 313.618 222.373C313.225 222.586 312.913 222.9 312.686 223.312C312.463 223.72 312.351 224.214 312.351 224.792ZM324.464 231.524C323.77 231.524 323.144 231.396 322.584 231.14C322.024 230.879 321.58 230.502 321.252 230.009C320.93 229.515 320.769 228.91 320.769 228.194C320.769 227.577 320.887 227.07 321.125 226.671C321.362 226.273 321.682 225.957 322.085 225.725C322.489 225.492 322.94 225.317 323.439 225.198C323.937 225.079 324.445 224.989 324.963 224.928C325.617 224.852 326.149 224.79 326.557 224.743C326.965 224.69 327.262 224.607 327.447 224.494C327.633 224.38 327.724 224.195 327.724 223.938V223.889C327.724 223.267 327.549 222.786 327.198 222.444C326.851 222.103 326.334 221.932 325.646 221.932C324.929 221.932 324.364 222.091 323.951 222.409C323.543 222.722 323.261 223.07 323.104 223.455L321.103 222.999C321.34 222.335 321.687 221.799 322.143 221.391C322.603 220.978 323.132 220.679 323.73 220.494C324.328 220.305 324.958 220.21 325.617 220.21C326.054 220.21 326.516 220.262 327.006 220.366C327.499 220.466 327.96 220.651 328.387 220.921C328.819 221.192 329.172 221.578 329.448 222.081C329.723 222.579 329.861 223.227 329.861 224.024V231.282H327.782V229.788H327.696C327.559 230.063 327.352 230.334 327.077 230.599C326.801 230.865 326.448 231.086 326.016 231.261C325.584 231.437 325.067 231.524 324.464 231.524ZM324.927 229.816C325.515 229.816 326.018 229.7 326.436 229.468C326.858 229.235 327.179 228.932 327.397 228.557C327.62 228.177 327.732 227.772 327.732 227.34V225.931C327.656 226.007 327.509 226.078 327.29 226.145C327.077 226.206 326.832 226.261 326.557 226.308C326.282 226.351 326.013 226.391 325.753 226.429C325.491 226.462 325.273 226.491 325.097 226.515C324.684 226.567 324.307 226.655 323.965 226.778C323.628 226.901 323.358 227.079 323.154 227.312C322.954 227.539 322.855 227.843 322.855 228.222C322.855 228.749 323.049 229.148 323.439 229.418C323.828 229.684 324.323 229.816 324.927 229.816ZM331.693 235.381V220.352H333.773V222.124H333.951C334.074 221.896 334.252 221.633 334.485 221.334C334.718 221.035 335.04 220.774 335.453 220.551C335.866 220.324 336.412 220.21 337.091 220.21C337.973 220.21 338.762 220.433 339.454 220.879C340.148 221.325 340.691 221.967 341.085 222.807C341.484 223.647 341.683 224.657 341.683 225.839C341.683 227.02 341.486 228.033 341.092 228.877C340.698 229.717 340.157 230.364 339.469 230.82C338.78 231.271 337.995 231.496 337.112 231.496C336.448 231.496 335.904 231.384 335.481 231.161C335.064 230.938 334.736 230.678 334.499 230.379C334.262 230.08 334.079 229.814 333.951 229.582H333.823V235.381H331.693ZM333.78 225.817C333.78 226.586 333.891 227.259 334.115 227.838C334.338 228.417 334.661 228.87 335.083 229.197C335.505 229.52 336.023 229.681 336.635 229.681C337.272 229.681 337.803 229.513 338.23 229.176C338.658 228.834 338.98 228.372 339.198 227.788C339.421 227.205 339.533 226.548 339.533 225.817C339.533 225.096 339.424 224.448 339.206 223.874C338.992 223.3 338.669 222.847 338.237 222.515C337.81 222.183 337.276 222.017 336.635 222.017C336.018 222.017 335.496 222.176 335.069 222.494C334.646 222.812 334.326 223.255 334.108 223.825C333.889 224.394 333.78 225.058 333.78 225.817ZM343.066 235.381V220.352H345.145V222.124H345.323C345.446 221.896 345.624 221.633 345.857 221.334C346.089 221.035 346.413 220.774 346.825 220.551C347.238 220.324 347.784 220.21 348.463 220.21C349.346 220.21 350.134 220.433 350.827 220.879C351.52 221.325 352.063 221.967 352.457 222.807C352.856 223.647 353.055 224.657 353.055 225.839C353.055 227.02 352.858 228.033 352.464 228.877C352.07 229.717 351.53 230.364 350.841 230.82C350.153 231.271 349.367 231.496 348.485 231.496C347.82 231.496 347.277 231.384 346.854 231.161C346.436 230.938 346.109 230.678 345.871 230.379C345.634 230.08 345.451 229.814 345.323 229.582H345.195V235.381H343.066ZM345.152 225.817C345.152 226.586 345.264 227.259 345.487 227.838C345.71 228.417 346.033 228.87 346.455 229.197C346.877 229.52 347.395 229.681 348.008 229.681C348.643 229.681 349.175 229.513 349.602 229.176C350.029 228.834 350.352 228.372 350.571 227.788C350.794 227.205 350.905 226.548 350.905 225.817C350.905 225.096 350.796 224.448 350.577 223.874C350.364 223.3 350.041 222.847 349.609 222.515C349.182 222.183 348.648 222.017 348.008 222.017C347.39 222.017 346.868 222.176 346.441 222.494C346.018 222.812 345.698 223.255 345.48 223.825C345.261 224.394 345.152 225.058 345.152 225.817ZM355.412 235.381C355.093 235.381 354.804 235.355 354.543 235.303C354.282 235.256 354.088 235.203 353.959 235.146L354.472 233.403C354.861 233.507 355.208 233.552 355.511 233.538C355.815 233.524 356.083 233.41 356.316 233.197C356.553 232.983 356.762 232.634 356.942 232.151L357.206 231.425L353.205 220.352H355.483L358.252 228.834H358.367L361.136 220.352H363.422L358.915 232.741C358.706 233.311 358.44 233.792 358.118 234.186C357.794 234.584 357.41 234.883 356.964 235.082C356.518 235.282 356 235.381 355.412 235.381ZM371.094 231.282L367.876 220.352H370.077L372.22 228.379H372.326L374.477 220.352H376.676L378.813 228.343H378.92L381.048 220.352H383.249L380.037 231.282H377.866L375.644 223.391H375.48L373.259 231.282H371.094ZM384.266 231.282V220.352H386.395V231.282H384.266ZM385.341 218.665C384.971 218.665 384.653 218.542 384.387 218.295C384.126 218.044 383.996 217.745 383.996 217.399C383.996 217.048 384.126 216.749 384.387 216.502C384.653 216.251 384.971 216.125 385.341 216.125C385.712 216.125 386.027 216.251 386.289 216.502C386.554 216.749 386.687 217.048 386.687 217.399C386.687 217.745 386.554 218.044 386.289 218.295C386.027 218.542 385.712 218.665 385.341 218.665ZM393.361 220.352V222.06H387.388V220.352H393.361ZM388.99 217.733H391.119V228.073C391.119 228.486 391.181 228.796 391.304 229.005C391.427 229.209 391.586 229.349 391.781 229.425C391.98 229.496 392.197 229.532 392.429 229.532C392.6 229.532 392.749 229.52 392.878 229.496C393.006 229.473 393.106 229.454 393.177 229.439L393.561 231.197C393.437 231.244 393.262 231.292 393.034 231.339C392.807 231.392 392.522 231.42 392.18 231.425C391.62 231.434 391.097 231.335 390.614 231.126C390.129 230.917 389.737 230.594 389.438 230.158C389.139 229.722 388.99 229.174 388.99 228.514V217.733ZM397.078 224.792V231.282H394.95V216.709H397.05V222.131H397.185C397.442 221.543 397.833 221.075 398.36 220.729C398.887 220.383 399.575 220.21 400.425 220.21C401.174 220.21 401.829 220.364 402.39 220.672C402.955 220.981 403.391 221.441 403.7 222.053C404.013 222.66 404.17 223.419 404.17 224.33V231.282H402.041V224.586C402.041 223.784 401.834 223.163 401.422 222.722C401.008 222.276 400.434 222.053 399.698 222.053C399.195 222.053 398.744 222.16 398.346 222.373C397.951 222.586 397.64 222.9 397.412 223.312C397.189 223.72 397.078 224.214 397.078 224.792ZM411.657 235.381C411.34 235.381 411.05 235.355 410.789 235.303C410.528 235.256 410.333 235.203 410.205 235.146L410.717 233.403C411.107 233.507 411.453 233.552 411.757 233.538C412.061 233.524 412.329 233.41 412.562 233.197C412.799 232.983 413.008 232.634 413.188 232.151L413.452 231.425L409.45 220.352H411.729L414.498 228.834H414.612L417.382 220.352H419.667L415.161 232.741C414.952 233.311 414.685 233.792 414.363 234.186C414.041 234.584 413.655 234.883 413.209 235.082C412.763 235.282 412.246 235.381 411.657 235.381ZM424.9 231.503C423.875 231.503 422.98 231.268 422.216 230.799C421.451 230.329 420.858 229.672 420.436 228.827C420.014 227.983 419.802 226.996 419.802 225.867C419.802 224.733 420.014 223.742 420.436 222.892C420.858 222.043 421.451 221.384 422.216 220.914C422.98 220.445 423.875 220.21 424.9 220.21C425.926 220.21 426.821 220.445 427.584 220.914C428.349 221.384 428.942 222.043 429.365 222.892C429.787 223.742 429.999 224.733 429.999 225.867C429.999 226.996 429.787 227.983 429.365 228.827C428.942 229.672 428.349 230.329 427.584 230.799C426.821 231.268 425.926 231.503 424.9 231.503ZM424.908 229.717C425.572 229.717 426.122 229.541 426.559 229.19C426.996 228.839 427.319 228.372 427.527 227.788C427.741 227.205 427.848 226.562 427.848 225.86C427.848 225.163 427.741 224.522 427.527 223.938C427.319 223.35 426.996 222.878 426.559 222.522C426.122 222.167 425.572 221.989 424.908 221.989C424.238 221.989 423.683 222.167 423.241 222.522C422.805 222.878 422.48 223.35 422.266 223.938C422.057 224.522 421.953 225.163 421.953 225.86C421.953 226.562 422.057 227.205 422.266 227.788C422.48 228.372 422.805 228.839 423.241 229.19C423.683 229.541 424.238 229.717 424.908 229.717ZM438.3 226.749V220.352H440.435V231.282H438.343V229.39H438.228C437.977 229.973 437.573 230.459 437.019 230.848C436.467 231.233 435.781 231.425 434.96 231.425C434.258 231.425 433.636 231.271 433.096 230.962C432.558 230.649 432.136 230.186 431.827 229.574C431.524 228.963 431.372 228.206 431.372 227.304V220.352H433.501V227.048C433.501 227.793 433.707 228.386 434.121 228.827C434.533 229.269 435.07 229.489 435.73 229.489C436.128 229.489 436.525 229.39 436.918 229.19C437.317 228.991 437.647 228.69 437.908 228.286C438.174 227.883 438.304 227.371 438.3 226.749ZM442.293 231.282V220.352H444.352V222.088H444.466C444.665 221.5 445.016 221.037 445.519 220.701C446.027 220.359 446.602 220.188 447.242 220.188C447.375 220.188 447.532 220.193 447.712 220.203C447.897 220.212 448.042 220.224 448.146 220.238V222.273C448.061 222.25 447.909 222.224 447.691 222.195C447.472 222.162 447.254 222.145 447.036 222.145C446.532 222.145 446.084 222.252 445.69 222.465C445.301 222.674 444.993 222.966 444.765 223.341C444.537 223.711 444.423 224.133 444.423 224.607V231.282H442.293ZM457.897 231.503C456.838 231.503 455.927 231.263 455.162 230.784C454.403 230.3 453.819 229.634 453.411 228.785C453.003 227.935 452.799 226.963 452.799 225.867C452.799 224.757 453.008 223.777 453.425 222.928C453.843 222.074 454.431 221.408 455.191 220.928C455.951 220.449 456.846 220.21 457.876 220.21C458.706 220.21 459.446 220.364 460.097 220.672C460.747 220.976 461.272 221.403 461.67 221.953C462.074 222.503 462.313 223.146 462.389 223.882H460.318C460.204 223.369 459.942 222.928 459.534 222.558C459.13 222.188 458.59 222.003 457.911 222.003C457.318 222.003 456.798 222.16 456.352 222.473C455.91 222.781 455.566 223.222 455.319 223.796C455.072 224.365 454.949 225.039 454.949 225.817C454.949 226.614 455.07 227.302 455.312 227.881C455.554 228.46 455.896 228.908 456.338 229.226C456.784 229.544 457.308 229.703 457.911 229.703C458.314 229.703 458.68 229.629 459.008 229.482C459.339 229.33 459.618 229.114 459.841 228.834C460.069 228.555 460.227 228.218 460.318 227.824H462.389C462.313 228.531 462.084 229.162 461.699 229.717C461.314 230.272 460.8 230.708 460.154 231.026C459.513 231.344 458.76 231.503 457.897 231.503ZM470.592 226.749V220.352H472.728V231.282H470.634V229.39H470.521C470.268 229.973 469.865 230.459 469.31 230.848C468.759 231.233 468.074 231.425 467.252 231.425C466.55 231.425 465.927 231.271 465.387 230.962C464.851 230.649 464.428 230.186 464.12 229.574C463.815 228.963 463.663 228.206 463.663 227.304V220.352H465.792V227.048C465.792 227.793 465.999 228.386 466.412 228.827C466.825 229.269 467.361 229.489 468.021 229.489C468.419 229.489 468.816 229.39 469.21 229.19C469.609 228.991 469.938 228.69 470.2 228.286C470.465 227.883 470.596 227.371 470.592 226.749ZM474.586 231.282V220.352H476.643V222.088H476.757C476.957 221.5 477.307 221.037 477.81 220.701C478.318 220.359 478.893 220.188 479.534 220.188C479.667 220.188 479.823 220.193 480.003 220.203C480.189 220.212 480.333 220.224 480.438 220.238V222.273C480.353 222.25 480.201 222.224 479.982 222.195C479.764 222.162 479.546 222.145 479.328 222.145C478.824 222.145 478.375 222.252 477.982 222.465C477.592 222.674 477.284 222.966 477.056 223.341C476.828 223.711 476.714 224.133 476.714 224.607V231.282H474.586ZM481.278 231.282V220.352H483.336V222.088H483.449C483.649 221.5 484 221.037 484.503 220.701C485.011 220.359 485.586 220.188 486.226 220.188C486.359 220.188 486.515 220.193 486.696 220.203C486.881 220.212 487.026 220.224 487.13 220.238V222.273C487.045 222.25 486.893 222.224 486.675 222.195C486.456 222.162 486.238 222.145 486.02 222.145C485.516 222.145 485.068 222.252 484.674 222.465C484.285 222.674 483.977 222.966 483.749 223.341C483.52 223.711 483.407 224.133 483.407 224.607V231.282H481.278ZM492.292 231.503C491.215 231.503 490.286 231.273 489.508 230.813C488.734 230.348 488.136 229.695 487.714 228.856C487.297 228.011 487.088 227.022 487.088 225.888C487.088 224.769 487.297 223.782 487.714 222.928C488.136 222.074 488.725 221.408 489.479 220.928C490.239 220.449 491.127 220.21 492.143 220.21C492.759 220.21 493.357 220.312 493.936 220.516C494.516 220.72 495.036 221.04 495.496 221.476C495.956 221.913 496.32 222.48 496.586 223.177C496.851 223.87 496.984 224.712 496.984 225.703V226.458H488.291V224.864H494.898C494.898 224.304 494.784 223.808 494.556 223.376C494.328 222.94 494.008 222.596 493.595 222.345C493.187 222.093 492.708 221.967 492.157 221.967C491.559 221.967 491.037 222.114 490.591 222.409C490.149 222.698 489.807 223.077 489.566 223.547C489.327 224.012 489.209 224.517 489.209 225.063V226.308C489.209 227.039 489.337 227.66 489.594 228.173C489.855 228.685 490.218 229.076 490.683 229.347C491.148 229.612 491.692 229.745 492.313 229.745C492.717 229.745 493.085 229.688 493.417 229.574C493.749 229.456 494.037 229.28 494.279 229.048C494.52 228.815 494.706 228.528 494.834 228.187L496.849 228.55C496.687 229.143 496.398 229.662 495.981 230.108C495.567 230.549 495.048 230.893 494.421 231.14C493.799 231.382 493.089 231.503 492.292 231.503ZM500.473 224.792V231.282H498.344V220.352H500.388V222.131H500.523C500.774 221.552 501.168 221.087 501.704 220.736C502.245 220.385 502.926 220.21 503.748 220.21C504.493 220.21 505.146 220.366 505.706 220.679C506.266 220.988 506.7 221.448 507.009 222.06C507.317 222.672 507.472 223.428 507.472 224.33V231.282H505.342V224.586C505.342 223.794 505.136 223.175 504.723 222.729C504.311 222.278 503.743 222.053 503.022 222.053C502.528 222.053 502.089 222.16 501.704 222.373C501.325 222.586 501.023 222.9 500.8 223.312C500.582 223.72 500.473 224.214 500.473 224.792ZM514.429 220.352V222.06H508.456V220.352H514.429ZM510.057 217.733H512.187V228.073C512.187 228.486 512.248 228.796 512.372 229.005C512.495 229.209 512.654 229.349 512.849 229.425C513.048 229.496 513.264 229.532 513.497 229.532C513.667 229.532 513.817 229.52 513.945 229.496C514.073 229.473 514.173 229.454 514.245 229.439L514.629 231.197C514.505 231.244 514.33 231.292 514.102 231.339C513.874 231.392 513.589 231.42 513.247 231.425C512.687 231.434 512.165 231.335 511.681 231.126C511.197 230.917 510.805 230.594 510.506 230.158C510.207 229.722 510.057 229.174 510.057 228.514V217.733ZM528.28 223.021L526.351 223.362C526.27 223.115 526.143 222.881 525.966 222.658C525.796 222.435 525.563 222.252 525.269 222.11C524.975 221.967 524.607 221.896 524.165 221.896C523.563 221.896 523.059 222.031 522.656 222.302C522.252 222.567 522.051 222.911 522.051 223.334C522.051 223.699 522.186 223.993 522.457 224.216C522.727 224.439 523.163 224.622 523.767 224.764L525.503 225.163C526.51 225.395 527.26 225.753 527.754 226.237C528.248 226.721 528.494 227.35 528.494 228.123C528.494 228.777 528.305 229.361 527.925 229.873C527.549 230.381 527.025 230.779 526.351 231.069C525.682 231.358 524.906 231.503 524.023 231.503C522.798 231.503 521.799 231.242 521.026 230.72C520.252 230.194 519.777 229.446 519.601 228.479L521.659 228.165C521.788 228.702 522.051 229.107 522.449 229.382C522.848 229.653 523.368 229.788 524.009 229.788C524.706 229.788 525.265 229.643 525.682 229.354C526.1 229.06 526.309 228.702 526.309 228.279C526.309 227.938 526.18 227.651 525.924 227.418C525.672 227.186 525.285 227.01 524.763 226.892L522.912 226.486C521.892 226.254 521.137 225.884 520.648 225.376C520.164 224.868 519.922 224.226 519.922 223.448C519.922 222.802 520.103 222.238 520.463 221.754C520.823 221.27 521.322 220.893 521.958 220.622C522.594 220.347 523.323 220.21 524.144 220.21C525.326 220.21 526.256 220.466 526.935 220.978C527.614 221.486 528.062 222.167 528.28 223.021ZM534.439 231.503C533.414 231.503 532.519 231.268 531.755 230.799C530.99 230.329 530.397 229.672 529.975 228.827C529.553 227.983 529.341 226.996 529.341 225.867C529.341 224.733 529.553 223.742 529.975 222.892C530.397 222.043 530.99 221.384 531.755 220.914C532.519 220.445 533.414 220.21 534.439 220.21C535.464 220.21 536.359 220.445 537.123 220.914C537.888 221.384 538.481 222.043 538.904 222.892C539.325 223.742 539.537 224.733 539.537 225.867C539.537 226.996 539.325 227.983 538.904 228.827C538.481 229.672 537.888 230.329 537.123 230.799C536.359 231.268 535.464 231.503 534.439 231.503ZM534.447 229.717C535.111 229.717 535.661 229.541 536.098 229.19C536.535 228.839 536.858 228.372 537.066 227.788C537.28 227.205 537.386 226.562 537.386 225.86C537.386 225.163 537.28 224.522 537.066 223.938C536.858 223.35 536.535 222.878 536.098 222.522C535.661 222.167 535.111 221.989 534.447 221.989C533.777 221.989 533.222 222.167 532.78 222.522C532.343 222.878 532.018 223.35 531.805 223.938C531.596 224.522 531.492 225.163 531.492 225.86C531.492 226.562 531.596 227.205 531.805 227.788C532.018 228.372 532.343 228.839 532.78 229.19C533.222 229.541 533.777 229.717 534.447 229.717ZM546.116 220.352V222.06H539.935V220.352H546.116ZM541.63 231.282V219.085C541.63 218.402 541.78 217.835 542.078 217.385C542.377 216.929 542.774 216.59 543.268 216.367C543.762 216.139 544.298 216.025 544.877 216.025C545.304 216.025 545.67 216.061 545.973 216.132C546.277 216.199 546.503 216.26 546.65 216.317L546.151 218.039C546.051 218.011 545.924 217.978 545.767 217.94C545.61 217.897 545.42 217.876 545.197 217.876C544.68 217.876 544.31 218.004 544.086 218.26C543.868 218.516 543.759 218.886 543.759 219.37V231.282H541.63ZM552.415 220.352V222.06H546.441V220.352H552.415ZM548.043 217.733H550.172V228.073C550.172 228.486 550.233 228.796 550.357 229.005C550.481 229.209 550.64 229.349 550.834 229.425C551.034 229.496 551.249 229.532 551.482 229.532C551.653 229.532 551.802 229.52 551.93 229.496C552.059 229.473 552.158 229.454 552.229 229.439L552.614 231.197C552.491 231.244 552.315 231.292 552.087 231.339C551.859 231.392 551.574 231.42 551.233 231.425C550.673 231.434 550.151 231.335 549.666 231.126C549.183 230.917 548.791 230.594 548.492 230.158C548.193 229.722 548.043 229.174 548.043 228.514V217.733ZM556.138 231.282L552.92 220.352H555.12L557.263 228.379H557.37L559.52 220.352H561.72L563.857 228.343H563.963L566.092 220.352H568.292L565.08 231.282H562.909L560.688 223.391H560.524L558.303 231.282H556.138ZM572.492 231.524C571.8 231.524 571.173 231.396 570.613 231.14C570.053 230.879 569.608 230.502 569.281 230.009C568.959 229.515 568.797 228.91 568.797 228.194C568.797 227.577 568.916 227.07 569.153 226.671C569.39 226.273 569.711 225.957 570.115 225.725C570.518 225.492 570.969 225.317 571.467 225.198C571.965 225.079 572.473 224.989 572.991 224.928C573.646 224.852 574.177 224.79 574.586 224.743C574.994 224.69 575.291 224.607 575.476 224.494C575.661 224.38 575.754 224.195 575.754 223.938V223.889C575.754 223.267 575.578 222.786 575.227 222.444C574.88 222.103 574.363 221.932 573.674 221.932C572.958 221.932 572.393 222.091 571.98 222.409C571.572 222.722 571.289 223.07 571.132 223.455L569.131 222.999C569.37 222.335 569.715 221.799 570.172 221.391C570.632 220.978 571.161 220.679 571.759 220.494C572.357 220.305 572.986 220.21 573.646 220.21C574.083 220.21 574.546 220.262 575.034 220.366C575.528 220.466 575.989 220.651 576.415 220.921C576.847 221.192 577.202 221.578 577.476 222.081C577.752 222.579 577.889 223.227 577.889 224.024V231.282H575.811V229.788H575.725C575.588 230.063 575.381 230.334 575.105 230.599C574.83 230.865 574.476 231.086 574.045 231.261C573.613 231.437 573.095 231.524 572.492 231.524ZM572.955 229.816C573.544 229.816 574.047 229.7 574.465 229.468C574.887 229.235 575.207 228.932 575.426 228.557C575.649 228.177 575.76 227.772 575.76 227.34V225.931C575.684 226.007 575.537 226.078 575.319 226.145C575.106 226.206 574.861 226.261 574.586 226.308C574.31 226.351 574.042 226.391 573.781 226.429C573.52 226.462 573.302 226.491 573.126 226.515C572.713 226.567 572.336 226.655 571.994 226.778C571.657 226.901 571.386 227.079 571.182 227.312C570.983 227.539 570.883 227.843 570.883 228.222C570.883 228.749 571.078 229.148 571.467 229.418C571.857 229.684 572.353 229.816 572.955 229.816ZM579.723 231.282V220.352H581.78V222.088H581.894C582.094 221.5 582.445 221.037 582.948 220.701C583.456 220.359 584.03 220.188 584.671 220.188C584.804 220.188 584.96 220.193 585.141 220.203C585.326 220.212 585.471 220.224 585.575 220.238V222.273C585.49 222.25 585.338 222.224 585.12 222.195C584.901 222.162 584.683 222.145 584.465 222.145C583.961 222.145 583.512 222.252 583.119 222.465C582.73 222.674 582.421 222.966 582.193 223.341C581.965 223.711 581.851 224.133 581.851 224.607V231.282H579.723ZM590.737 231.503C589.659 231.503 588.731 231.273 587.953 230.813C587.179 230.348 586.581 229.695 586.159 228.856C585.741 228.011 585.532 227.022 585.532 225.888C585.532 224.769 585.741 223.782 586.159 222.928C586.581 222.074 587.17 221.408 587.924 220.928C588.684 220.449 589.572 220.21 590.587 220.21C591.204 220.21 591.802 220.312 592.382 220.516C592.961 220.72 593.481 221.04 593.941 221.476C594.401 221.913 594.765 222.48 595.03 223.177C595.296 223.87 595.429 224.712 595.429 225.703V226.458H586.735V224.864H593.343C593.343 224.304 593.229 223.808 593.001 223.376C592.773 222.94 592.453 222.596 592.039 222.345C591.632 222.093 591.152 221.967 590.602 221.967C590.003 221.967 589.481 222.114 589.035 222.409C588.593 222.698 588.252 223.077 588.01 223.547C587.773 224.012 587.653 224.517 587.653 225.063V226.308C587.653 227.039 587.782 227.66 588.039 228.173C588.299 228.685 588.663 229.076 589.128 229.347C589.592 229.612 590.136 229.745 590.758 229.745C591.161 229.745 591.53 229.688 591.861 229.574C592.194 229.456 592.481 229.28 592.724 229.048C592.965 228.815 593.151 228.528 593.278 228.187L595.293 228.55C595.132 229.143 594.843 229.662 594.425 230.108C594.012 230.549 593.492 230.893 592.866 231.14C592.244 231.382 591.534 231.503 590.737 231.503ZM599.117 227.091V226.956C599.126 226.073 599.214 225.371 599.38 224.849C599.551 224.328 599.793 223.905 600.106 223.583C600.419 223.26 600.797 222.966 601.238 222.7C601.523 222.52 601.78 222.318 602.008 222.095C602.236 221.872 602.415 221.616 602.549 221.327C602.682 221.037 602.748 220.717 602.748 220.366C602.748 219.944 602.648 219.579 602.449 219.27C602.25 218.962 601.983 218.725 601.652 218.559C601.324 218.388 600.958 218.302 600.555 218.302C600.19 218.302 599.841 218.378 599.508 218.53C599.176 218.682 598.901 218.919 598.683 219.242C598.464 219.56 598.338 219.97 598.305 220.473H596.14C596.174 219.619 596.389 218.898 596.789 218.31C597.187 217.717 597.714 217.268 598.369 216.965C599.029 216.661 599.758 216.509 600.555 216.509C601.429 216.509 602.192 216.673 602.848 217C603.503 217.323 604.011 217.776 604.371 218.359C604.737 218.938 604.92 219.614 604.92 220.388C604.92 220.919 604.836 221.398 604.67 221.825C604.504 222.247 604.267 222.624 603.958 222.956C603.654 223.289 603.289 223.583 602.862 223.839C602.459 224.09 602.131 224.351 601.879 224.622C601.632 224.892 601.452 225.212 601.338 225.582C601.224 225.952 601.162 226.41 601.153 226.956V227.091H599.117ZM600.192 231.418C599.803 231.418 599.468 231.28 599.188 231.005C598.908 230.725 598.768 230.388 598.768 229.994C598.768 229.605 598.908 229.273 599.188 228.998C599.468 228.718 599.803 228.578 600.192 228.578C600.577 228.578 600.909 228.718 601.189 228.998C601.474 229.273 601.616 229.605 601.616 229.994C601.616 230.255 601.55 230.495 601.416 230.713C601.288 230.927 601.118 231.097 600.904 231.225C600.69 231.354 600.453 231.418 600.192 231.418Z" fill="black"/>
<path d="M247.655 254.77C247.579 254.097 247.266 253.575 246.715 253.205C246.164 252.83 245.471 252.643 244.636 252.643C244.038 252.643 243.52 252.738 243.084 252.927C242.647 253.112 242.308 253.369 242.066 253.696C241.828 254.018 241.71 254.386 241.71 254.799C241.71 255.145 241.79 255.444 241.952 255.696C242.118 255.947 242.334 256.158 242.6 256.329C242.87 256.495 243.16 256.635 243.468 256.749C243.777 256.858 244.073 256.948 244.358 257.019L245.782 257.389C246.247 257.503 246.724 257.657 247.213 257.852C247.702 258.046 248.156 258.303 248.573 258.62C248.991 258.938 249.328 259.332 249.584 259.801C249.845 260.271 249.976 260.833 249.976 261.488C249.976 262.314 249.762 263.047 249.335 263.687C248.913 264.328 248.298 264.833 247.491 265.203C246.689 265.573 245.718 265.758 244.579 265.758C243.487 265.758 242.543 265.584 241.745 265.239C240.948 264.892 240.323 264.401 239.873 263.765C239.422 263.124 239.172 262.365 239.125 261.488H241.332C241.375 262.015 241.546 262.453 241.845 262.805C242.149 263.151 242.536 263.409 243.005 263.58C243.48 263.746 244 263.829 244.565 263.829C245.187 263.829 245.739 263.732 246.224 263.538C246.713 263.338 247.097 263.063 247.377 262.712C247.657 262.356 247.797 261.941 247.797 261.467C247.797 261.035 247.674 260.681 247.427 260.407C247.185 260.131 246.855 259.903 246.437 259.723C246.024 259.543 245.557 259.384 245.035 259.246L243.312 258.777C242.144 258.459 241.218 257.992 240.535 257.375C239.856 256.758 239.517 255.942 239.517 254.927C239.517 254.087 239.744 253.354 240.2 252.728C240.656 252.102 241.273 251.616 242.051 251.269C242.83 250.918 243.708 250.743 244.686 250.743C245.673 250.743 246.544 250.916 247.299 251.262C248.058 251.608 248.656 252.085 249.093 252.692C249.53 253.295 249.758 253.988 249.777 254.77H247.655ZM258.359 260.983V254.585H260.495V265.516H258.402V263.623H258.288C258.037 264.207 257.633 264.693 257.078 265.082C256.527 265.466 255.841 265.658 255.02 265.658C254.318 265.658 253.696 265.504 253.155 265.195C252.618 264.882 252.196 264.42 251.887 263.808C251.583 263.196 251.432 262.439 251.432 261.538V254.585H253.56V261.282C253.56 262.026 253.767 262.619 254.18 263.061C254.593 263.502 255.129 263.722 255.789 263.722C256.188 263.722 256.584 263.623 256.978 263.423C257.377 263.225 257.707 262.923 257.968 262.52C258.234 262.117 258.364 261.604 258.359 260.983ZM262.353 265.516V254.585H264.411V256.322H264.525C264.724 255.733 265.076 255.271 265.579 254.934C266.087 254.592 266.661 254.422 267.302 254.422C267.435 254.422 267.591 254.426 267.772 254.436C267.957 254.445 268.102 254.457 268.206 254.471V256.507C268.121 256.483 267.969 256.457 267.75 256.428C267.532 256.395 267.314 256.379 267.095 256.379C266.592 256.379 266.144 256.486 265.75 256.699C265.36 256.907 265.052 257.2 264.824 257.574C264.596 257.944 264.482 258.366 264.482 258.841V265.516H262.353ZM278.734 254.585L274.769 265.516H272.49L268.517 254.585H270.803L273.572 262.997H273.686L276.449 254.585H278.734ZM284.074 265.736C282.997 265.736 282.069 265.507 281.29 265.047C280.516 264.581 279.918 263.929 279.496 263.089C279.078 262.244 278.869 261.256 278.869 260.122C278.869 259.002 279.078 258.015 279.496 257.161C279.918 256.308 280.507 255.641 281.262 255.162C282.021 254.683 282.909 254.443 283.925 254.443C284.541 254.443 285.14 254.545 285.718 254.749C286.298 254.953 286.818 255.273 287.278 255.71C287.738 256.146 288.102 256.713 288.368 257.411C288.633 258.103 288.766 258.945 288.766 259.937V260.691H280.073V259.097H286.68C286.68 258.537 286.566 258.041 286.338 257.61C286.11 257.174 285.79 256.83 285.377 256.578C284.969 256.326 284.49 256.201 283.939 256.201C283.341 256.201 282.819 256.348 282.373 256.642C281.931 256.932 281.589 257.311 281.347 257.781C281.11 258.246 280.991 258.751 280.991 259.296V260.542C280.991 261.273 281.119 261.894 281.376 262.406C281.637 262.918 282 263.31 282.465 263.58C282.93 263.846 283.474 263.979 284.095 263.979C284.499 263.979 284.867 263.922 285.199 263.808C285.531 263.689 285.819 263.514 286.061 263.281C286.302 263.048 286.488 262.762 286.616 262.421L288.631 262.783C288.469 263.376 288.18 263.896 287.762 264.342C287.349 264.783 286.83 265.127 286.203 265.374C285.581 265.615 284.871 265.736 284.074 265.736ZM291.158 269.615C290.84 269.615 290.55 269.589 290.29 269.536C290.028 269.489 289.834 269.437 289.706 269.38L290.218 267.637C290.607 267.741 290.954 267.786 291.258 267.772C291.561 267.758 291.83 267.643 292.063 267.43C292.3 267.217 292.509 266.868 292.689 266.384L292.952 265.658L288.951 254.585H291.23L293.999 263.068H294.113L296.883 254.585H299.168L294.662 266.974C294.453 267.544 294.186 268.026 293.864 268.419C293.541 268.818 293.156 269.117 292.71 269.316C292.264 269.515 291.747 269.615 291.158 269.615ZM304.47 265.516V254.585H306.528V256.322H306.641C306.841 255.733 307.192 255.271 307.696 254.934C308.204 254.592 308.778 254.422 309.418 254.422C309.551 254.422 309.708 254.426 309.889 254.436C310.073 254.445 310.219 254.457 310.323 254.471V256.507C310.237 256.483 310.085 256.457 309.867 256.428C309.649 256.395 309.43 256.379 309.212 256.379C308.709 256.379 308.26 256.486 307.866 256.699C307.477 256.907 307.169 257.2 306.941 257.574C306.713 257.944 306.599 258.366 306.599 258.841V265.516H304.47ZM315.484 265.736C314.407 265.736 313.479 265.507 312.701 265.047C311.927 264.581 311.329 263.929 310.906 263.089C310.489 262.244 310.28 261.256 310.28 260.122C310.28 259.002 310.489 258.015 310.906 257.161C311.329 256.308 311.917 255.641 312.672 255.162C313.432 254.683 314.319 254.443 315.335 254.443C315.952 254.443 316.55 254.545 317.129 254.749C317.708 254.953 318.228 255.273 318.688 255.71C319.148 256.146 319.512 256.713 319.778 257.411C320.044 258.103 320.177 258.945 320.177 259.937V260.691H311.483V259.097H318.09C318.09 258.537 317.976 258.041 317.748 257.61C317.521 257.174 317.2 256.83 316.788 256.578C316.379 256.326 315.9 256.201 315.349 256.201C314.751 256.201 314.229 256.348 313.783 256.642C313.342 256.932 313 257.311 312.758 257.781C312.52 258.246 312.402 258.751 312.402 259.296V260.542C312.402 261.273 312.529 261.894 312.786 262.406C313.047 262.918 313.41 263.31 313.875 263.58C314.341 263.846 314.884 263.979 315.506 263.979C315.91 263.979 316.277 263.922 316.61 263.808C316.941 263.689 317.229 263.514 317.471 263.281C317.713 263.048 317.898 262.762 318.027 262.421L320.042 262.783C319.879 263.376 319.59 263.896 319.173 264.342C318.76 264.783 318.24 265.127 317.613 265.374C316.991 265.615 316.282 265.736 315.484 265.736ZM329.732 257.254L327.802 257.595C327.721 257.349 327.593 257.114 327.417 256.891C327.246 256.668 327.014 256.486 326.72 256.343C326.425 256.201 326.057 256.13 325.616 256.13C325.013 256.13 324.51 256.264 324.107 256.535C323.703 256.8 323.501 257.144 323.501 257.567C323.501 257.933 323.636 258.227 323.907 258.45C324.178 258.672 324.615 258.855 325.217 258.997L326.955 259.396C327.96 259.628 328.711 259.987 329.204 260.47C329.698 260.954 329.945 261.583 329.945 262.356C329.945 263.011 329.755 263.595 329.376 264.106C329.001 264.614 328.476 265.013 327.802 265.302C327.133 265.592 326.356 265.736 325.473 265.736C324.249 265.736 323.25 265.476 322.476 264.954C321.702 264.427 321.228 263.68 321.052 262.712L323.11 262.399C323.238 262.935 323.501 263.341 323.9 263.615C324.299 263.886 324.818 264.021 325.459 264.021C326.157 264.021 326.715 263.877 327.133 263.587C327.55 263.293 327.759 262.935 327.759 262.512C327.759 262.171 327.63 261.885 327.375 261.652C327.123 261.419 326.736 261.244 326.214 261.125L324.363 260.72C323.342 260.487 322.588 260.117 322.098 259.609C321.615 259.102 321.372 258.459 321.372 257.68C321.372 257.036 321.553 256.471 321.914 255.987C322.275 255.504 322.773 255.126 323.408 254.856C324.045 254.581 324.773 254.443 325.595 254.443C326.777 254.443 327.706 254.699 328.386 255.212C329.064 255.719 329.513 256.4 329.732 257.254ZM338.211 260.983V254.585H340.347V265.516H338.254V263.623H338.14C337.888 264.207 337.484 264.693 336.929 265.082C336.379 265.466 335.693 265.658 334.872 265.658C334.169 265.658 333.547 265.504 333.006 265.195C332.47 264.882 332.047 264.42 331.739 263.808C331.435 263.196 331.283 262.439 331.283 261.538V254.585H333.412V261.282C333.412 262.026 333.619 262.619 334.031 263.061C334.444 263.502 334.98 263.722 335.64 263.722C336.039 263.722 336.436 263.623 336.829 263.423C337.229 263.225 337.559 262.923 337.819 262.52C338.085 262.117 338.215 261.604 338.211 260.983ZM344.334 250.942V265.516H342.205V250.942H344.334ZM351.3 254.585V256.294H345.326V254.585H351.3ZM346.929 251.967H349.057V262.306C349.057 262.719 349.119 263.03 349.243 263.239C349.366 263.443 349.525 263.583 349.72 263.659C349.919 263.73 350.135 263.765 350.368 263.765C350.538 263.765 350.688 263.753 350.816 263.73C350.944 263.706 351.044 263.687 351.115 263.673L351.5 265.431C351.376 265.478 351.201 265.525 350.973 265.573C350.745 265.625 350.46 265.654 350.118 265.658C349.558 265.668 349.036 265.568 348.552 265.359C348.068 265.15 347.676 264.828 347.377 264.391C347.078 263.955 346.929 263.407 346.929 262.748V251.967ZM360.672 257.254L358.742 257.595C358.661 257.349 358.533 257.114 358.358 256.891C358.187 256.668 357.954 256.486 357.66 256.343C357.365 256.201 356.998 256.13 356.556 256.13C355.954 256.13 355.451 256.264 355.047 256.535C354.644 256.8 354.441 257.144 354.441 257.567C354.441 257.933 354.577 258.227 354.848 258.45C355.118 258.672 355.555 258.855 356.157 258.997L357.895 259.396C358.901 259.628 359.651 259.987 360.145 260.47C360.639 260.954 360.885 261.583 360.885 262.356C360.885 263.011 360.695 263.595 360.315 264.106C359.941 264.614 359.416 265.013 358.742 265.302C358.073 265.592 357.297 265.736 356.414 265.736C355.189 265.736 354.19 265.476 353.416 264.954C352.643 264.427 352.168 263.68 351.992 262.712L354.05 262.399C354.178 262.935 354.441 263.341 354.84 263.615C355.239 263.886 355.759 264.021 356.4 264.021C357.097 264.021 357.655 263.877 358.073 263.587C358.491 263.293 358.7 262.935 358.7 262.512C358.7 262.171 358.571 261.885 358.315 261.652C358.063 261.419 357.676 261.244 357.154 261.125L355.303 260.72C354.283 260.487 353.528 260.117 353.039 259.609C352.555 259.102 352.313 258.459 352.313 257.68C352.313 257.036 352.493 256.471 352.854 255.987C353.214 255.504 353.713 255.126 354.349 254.856C354.985 254.581 355.714 254.443 356.535 254.443C357.717 254.443 358.647 254.699 359.326 255.212C360.005 255.719 360.453 256.4 360.672 257.254ZM366.698 265.516V250.942H368.827V256.357H368.955C369.079 256.13 369.257 255.866 369.489 255.567C369.722 255.269 370.045 255.008 370.457 254.785C370.871 254.557 371.416 254.443 372.095 254.443C372.978 254.443 373.766 254.666 374.459 255.112C375.152 255.558 375.695 256.201 376.09 257.04C376.488 257.88 376.688 258.89 376.688 260.072C376.688 261.253 376.491 262.266 376.096 263.11C375.703 263.95 375.162 264.598 374.473 265.053C373.785 265.504 372.999 265.73 372.116 265.73C371.452 265.73 370.908 265.618 370.486 265.395C370.068 265.172 369.74 264.911 369.503 264.612C369.266 264.313 369.083 264.047 368.955 263.815H368.777V265.516H366.698ZM368.784 260.051C368.784 260.819 368.896 261.493 369.119 262.072C369.342 262.65 369.664 263.104 370.087 263.431C370.51 263.753 371.027 263.914 371.639 263.914C372.275 263.914 372.807 263.746 373.234 263.409C373.661 263.068 373.984 262.605 374.202 262.021C374.425 261.438 374.537 260.782 374.537 260.051C374.537 259.33 374.428 258.682 374.21 258.108C373.996 257.534 373.674 257.081 373.242 256.749C372.814 256.416 372.28 256.25 371.639 256.25C371.022 256.25 370.5 256.41 370.073 256.727C369.65 257.045 369.33 257.488 369.111 258.058C368.893 258.627 368.784 259.291 368.784 260.051ZM381.258 265.758C380.565 265.758 379.938 265.629 379.379 265.374C378.818 265.112 378.375 264.735 378.047 264.242C377.725 263.749 377.562 263.144 377.562 262.427C377.562 261.81 377.682 261.303 377.919 260.904C378.156 260.506 378.476 260.19 378.88 259.958C379.283 259.725 379.735 259.55 380.233 259.431C380.731 259.313 381.239 259.223 381.756 259.161C382.411 259.085 382.943 259.023 383.351 258.976C383.76 258.924 384.056 258.841 384.242 258.727C384.426 258.613 384.519 258.428 384.519 258.172V258.122C384.519 257.501 384.344 257.019 383.993 256.678C383.646 256.336 383.128 256.165 382.44 256.165C381.724 256.165 381.158 256.324 380.745 256.642C380.338 256.955 380.055 257.304 379.898 257.688L377.897 257.233C378.135 256.568 378.481 256.032 378.937 255.624C379.398 255.212 379.927 254.913 380.525 254.728C381.123 254.538 381.752 254.443 382.411 254.443C382.848 254.443 383.311 254.495 383.8 254.6C384.293 254.699 384.754 254.884 385.181 255.155C385.613 255.425 385.967 255.812 386.242 256.315C386.517 256.813 386.655 257.46 386.655 258.257V265.516H384.576V264.021H384.491C384.353 264.297 384.146 264.567 383.872 264.833C383.596 265.098 383.242 265.319 382.811 265.494C382.379 265.67 381.861 265.758 381.258 265.758ZM381.721 264.05C382.309 264.05 382.813 263.934 383.231 263.701C383.653 263.468 383.973 263.165 384.192 262.79C384.415 262.411 384.527 262.005 384.527 261.573V260.165C384.45 260.24 384.303 260.311 384.085 260.378C383.872 260.439 383.627 260.494 383.351 260.542C383.076 260.584 382.808 260.625 382.547 260.663C382.286 260.696 382.068 260.724 381.892 260.748C381.479 260.8 381.101 260.888 380.76 261.011C380.423 261.135 380.152 261.313 379.948 261.545C379.749 261.773 379.649 262.077 379.649 262.456C379.649 262.983 379.844 263.381 380.233 263.651C380.622 263.917 381.118 264.05 381.721 264.05ZM396.684 257.254L394.754 257.595C394.673 257.349 394.545 257.114 394.369 256.891C394.198 256.668 393.966 256.486 393.672 256.343C393.377 256.201 393.009 256.13 392.568 256.13C391.965 256.13 391.462 256.264 391.059 256.535C390.655 256.8 390.453 257.144 390.453 257.567C390.453 257.933 390.588 258.227 390.859 258.45C391.13 258.672 391.567 258.855 392.169 258.997L393.907 259.396C394.913 259.628 395.663 259.987 396.156 260.47C396.65 260.954 396.897 261.583 396.897 262.356C396.897 263.011 396.707 263.595 396.328 264.106C395.953 264.614 395.428 265.013 394.754 265.302C394.085 265.592 393.308 265.736 392.425 265.736C391.201 265.736 390.202 265.476 389.428 264.954C388.654 264.427 388.18 263.68 388.004 262.712L390.062 262.399C390.19 262.935 390.453 263.341 390.852 263.615C391.251 263.886 391.77 264.021 392.411 264.021C393.109 264.021 393.667 263.877 394.085 263.587C394.502 263.293 394.711 262.935 394.711 262.512C394.711 262.171 394.583 261.885 394.327 261.652C394.075 261.419 393.689 261.244 393.166 261.125L391.315 260.72C390.294 260.487 389.54 260.117 389.05 259.609C388.567 259.102 388.324 258.459 388.324 257.68C388.324 257.036 388.505 256.471 388.866 255.987C389.227 255.504 389.724 255.126 390.361 254.856C390.997 254.581 391.725 254.443 392.547 254.443C393.729 254.443 394.659 254.699 395.338 255.212C396.017 255.719 396.465 256.4 396.684 257.254ZM402.948 265.736C401.871 265.736 400.943 265.507 400.165 265.047C399.391 264.581 398.793 263.929 398.37 263.089C397.953 262.244 397.744 261.256 397.744 260.122C397.744 259.002 397.953 258.015 398.37 257.161C398.793 256.308 399.382 255.641 400.136 255.162C400.896 254.683 401.784 254.443 402.799 254.443C403.416 254.443 404.014 254.545 404.593 254.749C405.172 254.953 405.693 255.273 406.153 255.71C406.613 256.146 406.976 256.713 407.242 257.411C407.508 258.103 407.641 258.945 407.641 259.937V260.691H398.947V259.097H405.555C405.555 258.537 405.44 258.041 405.213 257.61C404.985 257.174 404.664 256.83 404.252 256.578C403.843 256.326 403.364 256.201 402.813 256.201C402.216 256.201 401.693 256.348 401.247 256.642C400.805 256.932 400.464 257.311 400.221 257.781C399.984 258.246 399.866 258.751 399.866 259.296V260.542C399.866 261.273 399.993 261.894 400.25 262.406C400.511 262.918 400.874 263.31 401.339 263.58C401.805 263.846 402.348 263.979 402.97 263.979C403.374 263.979 403.741 263.922 404.074 263.808C404.406 263.689 404.693 263.514 404.935 263.281C405.177 263.048 405.363 262.762 405.49 262.421L407.505 262.783C407.344 263.376 407.054 263.896 406.637 264.342C406.224 264.783 405.704 265.127 405.078 265.374C404.455 265.615 403.746 265.736 402.948 265.736ZM413.094 265.73C412.211 265.73 411.424 265.504 410.73 265.053C410.042 264.598 409.501 263.95 409.107 263.11C408.718 262.266 408.523 261.253 408.523 260.072C408.523 258.89 408.72 257.88 409.114 257.04C409.513 256.201 410.059 255.558 410.752 255.112C411.444 254.666 412.231 254.443 413.109 254.443C413.787 254.443 414.333 254.557 414.746 254.785C415.164 255.008 415.487 255.269 415.714 255.567C415.947 255.866 416.128 256.13 416.256 256.357H416.383V250.942H418.513V265.516H416.434V263.815H416.256C416.128 264.047 415.942 264.313 415.7 264.612C415.463 264.911 415.135 265.172 414.718 265.395C414.3 265.618 413.759 265.73 413.094 265.73ZM413.564 263.914C414.176 263.914 414.694 263.753 415.116 263.431C415.544 263.104 415.866 262.65 416.084 262.072C416.307 261.493 416.419 260.819 416.419 260.051C416.419 259.291 416.31 258.627 416.092 258.058C415.874 257.488 415.553 257.045 415.13 256.727C414.708 256.41 414.186 256.25 413.564 256.25C412.923 256.25 412.389 256.416 411.962 256.749C411.535 257.081 411.212 257.534 410.994 258.108C410.78 258.682 410.673 259.33 410.673 260.051C410.673 260.782 410.783 261.438 411.001 262.021C411.22 262.605 411.542 263.068 411.969 263.409C412.401 263.746 412.933 263.914 413.564 263.914ZM429.459 265.736C428.434 265.736 427.539 265.502 426.774 265.031C426.011 264.562 425.417 263.905 424.995 263.061C424.572 262.216 424.361 261.229 424.361 260.1C424.361 258.966 424.572 257.975 424.995 257.126C425.417 256.277 426.011 255.617 426.774 255.148C427.539 254.678 428.434 254.443 429.459 254.443C430.484 254.443 431.379 254.678 432.144 255.148C432.907 255.617 433.501 256.277 433.923 257.126C434.346 257.975 434.557 258.966 434.557 260.1C434.557 261.229 434.346 262.216 433.923 263.061C433.501 263.905 432.907 264.562 432.144 265.031C431.379 265.502 430.484 265.736 429.459 265.736ZM429.466 263.95C430.131 263.95 430.682 263.775 431.118 263.423C431.555 263.073 431.877 262.605 432.086 262.021C432.3 261.438 432.407 260.796 432.407 260.094C432.407 259.396 432.3 258.755 432.086 258.172C431.877 257.584 431.555 257.112 431.118 256.756C430.682 256.4 430.131 256.222 429.466 256.222C428.797 256.222 428.241 256.4 427.8 256.756C427.363 257.112 427.038 257.584 426.825 258.172C426.616 258.755 426.511 259.396 426.511 260.094C426.511 260.796 426.616 261.438 426.825 262.021C427.038 262.605 427.363 263.073 427.8 263.423C428.241 263.775 428.797 263.95 429.466 263.95ZM438.06 259.026V265.516H435.931V254.585H437.974V256.365H438.109C438.361 255.786 438.755 255.321 439.291 254.97C439.833 254.619 440.514 254.443 441.335 254.443C442.08 254.443 442.733 254.6 443.293 254.913C443.853 255.221 444.287 255.682 444.595 256.294C444.905 256.905 445.058 257.662 445.058 258.563V265.516H442.93V258.819C442.93 258.027 442.723 257.408 442.311 256.962C441.897 256.512 441.33 256.286 440.609 256.286C440.115 256.286 439.676 256.393 439.291 256.607C438.911 256.82 438.611 257.133 438.388 257.546C438.169 257.954 438.06 258.447 438.06 259.026ZM451.186 265.516V263.922L456.121 258.813C456.647 258.257 457.082 257.771 457.423 257.353C457.77 256.932 458.029 256.531 458.199 256.151C458.371 255.772 458.456 255.368 458.456 254.941C458.456 254.457 458.342 254.04 458.114 253.689C457.886 253.333 457.575 253.06 457.182 252.87C456.788 252.676 456.344 252.579 455.85 252.579C455.328 252.579 454.872 252.685 454.483 252.899C454.094 253.112 453.795 253.414 453.586 253.803C453.377 254.192 453.273 254.647 453.273 255.169H451.172C451.172 254.282 451.377 253.506 451.784 252.842C452.193 252.178 452.752 251.663 453.465 251.298C454.177 250.928 454.986 250.743 455.893 250.743C456.809 250.743 457.615 250.925 458.314 251.291C459.016 251.651 459.564 252.145 459.958 252.771C460.352 253.392 460.549 254.094 460.549 254.877C460.549 255.418 460.448 255.947 460.243 256.464C460.044 256.981 459.695 257.558 459.197 258.193C458.698 258.824 458.005 259.59 457.118 260.492L454.219 263.524V263.63H460.784V265.516H451.186ZM467.557 265.758C466.432 265.753 465.471 265.456 464.673 264.868C463.876 264.28 463.266 263.423 462.843 262.3C462.421 261.175 462.209 259.821 462.209 258.236C462.209 256.656 462.421 255.306 462.843 254.187C463.27 253.067 463.883 252.213 464.681 251.625C465.483 251.037 466.442 250.743 467.557 250.743C468.672 250.743 469.629 251.039 470.427 251.632C471.224 252.22 471.833 253.074 472.256 254.194C472.683 255.309 472.897 256.656 472.897 258.236C472.897 259.826 472.686 261.182 472.263 262.306C471.841 263.426 471.231 264.283 470.433 264.875C469.636 265.464 468.677 265.758 467.557 265.758ZM467.557 263.858C468.544 263.858 469.315 263.377 469.871 262.413C470.431 261.45 470.711 260.058 470.711 258.236C470.711 257.026 470.583 256.004 470.326 255.169C470.075 254.329 469.711 253.693 469.237 253.262C468.767 252.825 468.207 252.607 467.557 252.607C466.574 252.607 465.803 253.091 465.243 254.059C464.683 255.027 464.401 256.419 464.396 258.236C464.396 259.451 464.521 260.478 464.773 261.318C465.029 262.153 465.392 262.785 465.863 263.217C466.332 263.645 466.897 263.858 467.557 263.858ZM479.497 265.758C478.372 265.753 477.411 265.456 476.613 264.868C475.816 264.28 475.206 263.423 474.783 262.3C474.361 261.175 474.15 259.821 474.15 258.236C474.15 256.656 474.361 255.306 474.783 254.187C475.21 253.067 475.823 252.213 476.62 251.625C477.422 251.037 478.381 250.743 479.497 250.743C480.612 250.743 481.569 251.039 482.366 251.632C483.163 252.22 483.773 253.074 484.196 254.194C484.623 255.309 484.837 256.656 484.837 258.236C484.837 259.826 484.625 261.182 484.203 262.306C483.781 263.426 483.171 264.283 482.373 264.875C481.576 265.464 480.617 265.758 479.497 265.758ZM479.497 263.858C480.484 263.858 481.255 263.377 481.811 262.413C482.371 261.45 482.651 260.058 482.651 258.236C482.651 257.026 482.523 256.004 482.266 255.169C482.015 254.329 481.652 253.693 481.177 253.262C480.707 252.825 480.147 252.607 479.497 252.607C478.514 252.607 477.743 253.091 477.183 254.059C476.623 255.027 476.34 256.419 476.335 258.236C476.335 259.451 476.462 260.478 476.713 261.318C476.97 262.153 477.332 262.785 477.802 263.217C478.272 263.645 478.837 263.858 479.497 263.858ZM490.692 269.615V254.585H492.771V256.357H492.949C493.073 256.13 493.251 255.866 493.483 255.567C493.716 255.269 494.039 255.008 494.451 254.785C494.865 254.557 495.411 254.443 496.089 254.443C496.972 254.443 497.76 254.666 498.453 255.112C499.147 255.558 499.69 256.201 500.084 257.04C500.482 257.88 500.682 258.89 500.682 260.072C500.682 261.253 500.485 262.266 500.091 263.11C499.697 263.95 499.156 264.598 498.467 265.053C497.779 265.504 496.994 265.73 496.111 265.73C495.446 265.73 494.903 265.618 494.48 265.395C494.062 265.172 493.735 264.911 493.497 264.612C493.26 264.313 493.077 264.047 492.949 263.815H492.822V269.615H490.692ZM492.778 260.051C492.778 260.819 492.89 261.493 493.113 262.072C493.336 262.65 493.659 263.104 494.081 263.431C494.504 263.753 495.021 263.914 495.634 263.914C496.269 263.914 496.801 263.746 497.228 263.409C497.655 263.068 497.979 262.605 498.197 262.021C498.42 261.438 498.532 260.782 498.532 260.051C498.532 259.33 498.422 258.682 498.204 258.108C497.99 257.534 497.668 257.081 497.236 256.749C496.808 256.416 496.274 256.25 495.634 256.25C495.016 256.25 494.494 256.41 494.067 256.727C493.644 257.045 493.324 257.488 493.106 258.058C492.888 258.627 492.778 259.291 492.778 260.051ZM505.247 265.758C504.554 265.758 503.928 265.629 503.367 265.374C502.807 265.112 502.364 264.735 502.036 264.242C501.713 263.749 501.552 263.144 501.552 262.427C501.552 261.81 501.67 261.303 501.908 260.904C502.145 260.506 502.466 260.19 502.869 259.958C503.273 259.725 503.724 259.55 504.222 259.431C504.72 259.313 505.228 259.223 505.745 259.161C506.4 259.085 506.932 259.023 507.34 258.976C507.749 258.924 508.045 258.841 508.23 258.727C508.415 258.613 508.508 258.428 508.508 258.172V258.122C508.508 257.501 508.333 257.019 507.981 256.678C507.634 256.336 507.117 256.165 506.429 256.165C505.712 256.165 505.147 256.324 504.735 256.642C504.326 256.955 504.044 257.304 503.888 257.688L501.887 257.233C502.124 256.568 502.471 256.032 502.926 255.624C503.386 255.212 503.916 254.913 504.514 254.728C505.111 254.538 505.74 254.443 506.4 254.443C506.837 254.443 507.3 254.495 507.789 254.6C508.283 254.699 508.743 254.884 509.17 255.155C509.602 255.425 509.956 255.812 510.231 256.315C510.507 256.813 510.644 257.46 510.644 258.257V265.516H508.565V264.021H508.48C508.342 264.297 508.136 264.567 507.86 264.833C507.585 265.098 507.231 265.319 506.799 265.494C506.367 265.67 505.85 265.758 505.247 265.758ZM505.71 264.05C506.299 264.05 506.801 263.934 507.219 263.701C507.642 263.468 507.962 263.165 508.181 262.79C508.404 262.411 508.515 262.005 508.515 261.573V260.165C508.439 260.24 508.292 260.311 508.074 260.378C507.86 260.439 507.616 260.494 507.34 260.542C507.065 260.584 506.797 260.625 506.536 260.663C506.275 260.696 506.056 260.724 505.881 260.748C505.468 260.8 505.091 260.888 504.749 261.011C504.411 261.135 504.141 261.313 503.937 261.545C503.738 261.773 503.638 262.077 503.638 262.456C503.638 262.983 503.832 263.381 504.222 263.651C504.611 263.917 505.107 264.05 505.71 264.05ZM512.477 265.516V254.585H514.535V256.322H514.649C514.848 255.733 515.199 255.271 515.703 254.934C516.211 254.592 516.785 254.422 517.425 254.422C517.558 254.422 517.715 254.426 517.896 254.436C518.08 254.445 518.225 254.457 518.33 254.471V256.507C518.244 256.483 518.092 256.457 517.874 256.428C517.656 256.395 517.437 256.379 517.219 256.379C516.716 256.379 516.268 256.486 515.873 256.699C515.484 256.907 515.176 257.2 514.948 257.574C514.72 257.944 514.606 258.366 514.606 258.841V265.516H512.477ZM524.921 254.585V256.294H518.947V254.585H524.921ZM520.549 251.967H522.678V262.306C522.678 262.719 522.74 263.03 522.863 263.239C522.987 263.443 523.146 263.583 523.34 263.659C523.54 263.73 523.755 263.765 523.988 263.765C524.159 263.765 524.308 263.753 524.436 263.73C524.565 263.706 524.664 263.687 524.735 263.673L525.12 265.431C524.997 265.478 524.821 265.525 524.593 265.573C524.365 265.625 524.08 265.654 523.739 265.658C523.179 265.668 522.657 265.568 522.172 265.359C521.689 265.15 521.297 264.828 520.998 264.391C520.699 263.955 520.549 263.407 520.549 262.748V251.967ZM526.273 265.516V254.585H528.402V265.516H526.273ZM527.349 252.899C526.978 252.899 526.66 252.776 526.394 252.529C526.133 252.277 526.003 251.978 526.003 251.632C526.003 251.281 526.133 250.982 526.394 250.736C526.66 250.484 526.978 250.358 527.349 250.358C527.719 250.358 528.034 250.484 528.295 250.736C528.562 250.982 528.694 251.281 528.694 251.632C528.694 251.978 528.562 252.277 528.295 252.529C528.034 252.776 527.719 252.899 527.349 252.899ZM534.871 265.736C533.812 265.736 532.901 265.497 532.136 265.017C531.377 264.534 530.793 263.868 530.384 263.018C529.977 262.168 529.772 261.197 529.772 260.1C529.772 258.991 529.981 258.01 530.399 257.161C530.816 256.308 531.405 255.641 532.165 255.162C532.924 254.683 533.819 254.443 534.849 254.443C535.679 254.443 536.42 254.597 537.07 254.906C537.721 255.209 538.245 255.637 538.644 256.187C539.048 256.737 539.287 257.38 539.363 258.115H537.291C537.177 257.603 536.917 257.161 536.508 256.791C536.105 256.421 535.563 256.236 534.885 256.236C534.291 256.236 533.771 256.393 533.325 256.706C532.884 257.014 532.54 257.456 532.293 258.03C532.046 258.599 531.922 259.273 531.922 260.051C531.922 260.848 532.044 261.536 532.286 262.114C532.528 262.693 532.87 263.141 533.311 263.459C533.757 263.777 534.282 263.936 534.885 263.936C535.288 263.936 535.653 263.863 535.981 263.716C536.313 263.564 536.591 263.347 536.814 263.068C537.042 262.788 537.201 262.451 537.291 262.057H539.363C539.287 262.765 539.057 263.395 538.673 263.95C538.288 264.505 537.773 264.941 537.127 265.259C536.486 265.578 535.734 265.736 534.871 265.736ZM540.638 265.516V254.585H542.766V265.516H540.638ZM541.713 252.899C541.342 252.899 541.024 252.776 540.759 252.529C540.497 252.277 540.367 251.978 540.367 251.632C540.367 251.281 540.497 250.982 540.759 250.736C541.024 250.484 541.342 250.358 541.713 250.358C542.083 250.358 542.399 250.484 542.659 250.736C542.925 250.982 543.058 251.281 543.058 251.632C543.058 251.978 542.925 252.277 542.659 252.529C542.399 252.776 542.083 252.899 541.713 252.899ZM544.627 269.615V254.585H546.707V256.357H546.885C547.008 256.13 547.186 255.866 547.419 255.567C547.652 255.269 547.974 255.008 548.387 254.785C548.8 254.557 549.346 254.443 550.024 254.443C550.907 254.443 551.695 254.666 552.388 255.112C553.082 255.558 553.625 256.201 554.019 257.04C554.418 257.88 554.617 258.89 554.617 260.072C554.617 261.253 554.42 262.266 554.026 263.11C553.632 263.95 553.091 264.598 552.403 265.053C551.714 265.504 550.929 265.73 550.046 265.73C549.382 265.73 548.838 265.618 548.415 265.395C547.998 265.172 547.67 264.911 547.433 264.612C547.196 264.313 547.013 264.047 546.885 263.815H546.756V269.615H544.627ZM546.713 260.051C546.713 260.819 546.825 261.493 547.048 262.072C547.272 262.65 547.594 263.104 548.017 263.431C548.439 263.753 548.957 263.914 549.569 263.914C550.205 263.914 550.737 263.746 551.164 263.409C551.591 263.068 551.914 262.605 552.132 262.021C552.355 261.438 552.467 260.782 552.467 260.051C552.467 259.33 552.358 258.682 552.139 258.108C551.926 257.534 551.603 257.081 551.171 256.749C550.744 256.416 550.21 256.25 549.569 256.25C548.952 256.25 548.429 256.41 548.003 256.727C547.58 257.045 547.26 257.488 547.041 258.058C546.823 258.627 546.713 259.291 546.713 260.051ZM559.182 265.758C558.49 265.758 557.863 265.629 557.302 265.374C556.743 265.112 556.299 264.735 555.972 264.242C555.648 263.749 555.487 263.144 555.487 262.427C555.487 261.81 555.606 261.303 555.843 260.904C556.08 260.506 556.401 260.19 556.804 259.958C557.208 259.725 557.658 259.55 558.157 259.431C558.656 259.313 559.164 259.223 559.681 259.161C560.336 259.085 560.867 259.023 561.276 258.976C561.684 258.924 561.981 258.841 562.165 258.727C562.351 258.613 562.444 258.428 562.444 258.172V258.122C562.444 257.501 562.268 257.019 561.916 256.678C561.57 256.336 561.053 256.165 560.364 256.165C559.647 256.165 559.083 256.324 558.67 256.642C558.261 256.955 557.979 257.304 557.822 257.688L555.822 257.233C556.059 256.568 556.405 256.032 556.861 255.624C557.322 255.212 557.851 254.913 558.449 254.728C559.047 254.538 559.676 254.443 560.336 254.443C560.773 254.443 561.236 254.495 561.724 254.6C562.218 254.699 562.678 254.884 563.105 255.155C563.537 255.425 563.891 255.812 564.166 256.315C564.442 256.813 564.58 257.46 564.58 258.257V265.516H562.5V264.021H562.415C562.277 264.297 562.071 264.567 561.795 264.833C561.52 265.098 561.166 265.319 560.734 265.494C560.302 265.67 559.785 265.758 559.182 265.758ZM559.645 264.05C560.234 264.05 560.737 263.934 561.154 263.701C561.577 263.468 561.897 263.165 562.116 262.79C562.339 262.411 562.45 262.005 562.45 261.573V260.165C562.374 260.24 562.227 260.311 562.009 260.378C561.795 260.439 561.551 260.494 561.276 260.542C561 260.584 560.732 260.625 560.471 260.663C560.21 260.696 559.992 260.724 559.816 260.748C559.403 260.8 559.026 260.888 558.684 261.011C558.347 261.135 558.076 261.313 557.872 261.545C557.673 261.773 557.573 262.077 557.573 262.456C557.573 262.983 557.768 263.381 558.157 263.651C558.546 263.917 559.043 264.05 559.645 264.05ZM568.541 259.026V265.516H566.413V254.585H568.456V256.365H568.591C568.843 255.786 569.236 255.321 569.773 254.97C570.314 254.619 570.996 254.443 571.817 254.443C572.562 254.443 573.215 254.6 573.774 254.913C574.335 255.221 574.769 255.682 575.078 256.294C575.386 256.905 575.54 257.662 575.54 258.563V265.516H573.412V258.819C573.412 258.027 573.205 257.408 572.792 256.962C572.379 256.512 571.812 256.286 571.09 256.286C570.596 256.286 570.158 256.393 569.773 256.607C569.393 256.82 569.092 257.133 568.869 257.546C568.651 257.954 568.541 258.447 568.541 259.026ZM582.498 254.585V256.294H576.524V254.585H582.498ZM578.126 251.967H580.255V262.306C580.255 262.719 580.316 263.03 580.44 263.239C580.564 263.443 580.722 263.583 580.917 263.659C581.117 263.73 581.332 263.765 581.565 263.765C581.736 263.765 581.885 263.753 582.014 263.73C582.142 263.706 582.241 263.687 582.313 263.673L582.697 265.431C582.574 265.478 582.398 265.525 582.17 265.573C581.943 265.625 581.658 265.654 581.316 265.658C580.756 265.668 580.234 265.568 579.75 265.359C579.265 265.15 578.874 264.828 578.575 264.391C578.276 263.955 578.126 263.407 578.126 262.748V251.967ZM591.869 257.254L589.94 257.595C589.859 257.349 589.731 257.114 589.555 256.891C589.384 256.668 589.152 256.486 588.858 256.343C588.564 256.201 588.195 256.13 587.754 256.13C587.151 256.13 586.648 256.264 586.245 256.535C585.841 256.8 585.64 257.144 585.64 257.567C585.64 257.933 585.774 258.227 586.045 258.45C586.316 258.672 586.753 258.855 587.356 258.997L589.092 259.396C590.099 259.628 590.849 259.987 591.342 260.47C591.836 260.954 592.083 261.583 592.083 262.356C592.083 263.011 591.893 263.595 591.514 264.106C591.138 264.614 590.614 265.013 589.94 265.302C589.27 265.592 588.494 265.736 587.611 265.736C586.387 265.736 585.387 265.476 584.614 264.954C583.84 264.427 583.366 263.68 583.19 262.712L585.248 262.399C585.376 262.935 585.64 263.341 586.038 263.615C586.437 263.886 586.956 264.021 587.597 264.021C588.296 264.021 588.853 263.877 589.27 263.587C589.688 263.293 589.897 262.935 589.897 262.512C589.897 262.171 589.769 261.885 589.513 261.652C589.261 261.419 588.874 261.244 588.352 261.125L586.501 260.72C585.48 260.487 584.726 260.117 584.237 259.609C583.753 259.102 583.51 258.459 583.51 257.68C583.51 257.036 583.691 256.471 584.052 255.987C584.412 255.504 584.91 255.126 585.547 254.856C586.183 254.581 586.911 254.443 587.732 254.443C588.915 254.443 589.845 254.699 590.524 255.212C591.203 255.719 591.651 256.4 591.869 257.254Z" fill="black" fill-opacity="0.5"/>
<path d="M242.695 334.817V986.922" stroke="black"/>
<path d="M242.277 986.504H1360.9" stroke="black"/>
<path d="M311.6 486.112C311.059 486.103 310.524 486.005 309.998 485.815C309.476 485.625 309.001 485.309 308.574 484.866C308.147 484.423 307.805 483.828 307.547 483.082C307.294 482.334 307.168 481.401 307.168 480.282C307.168 479.222 307.272 478.281 307.482 477.46C307.696 476.637 308.003 475.943 308.402 475.378C308.801 474.809 309.284 474.375 309.85 474.079C310.415 473.783 311.05 473.635 311.754 473.635C312.478 473.635 313.121 473.777 313.683 474.061C314.244 474.346 314.699 474.739 315.048 475.241C315.399 475.744 315.623 476.315 315.718 476.955H313.908C313.785 476.449 313.542 476.036 313.178 475.716C312.815 475.396 312.34 475.235 311.754 475.235C310.864 475.235 310.17 475.623 309.672 476.398C309.177 477.172 308.928 478.25 308.924 479.63H309.013C309.223 479.286 309.48 478.994 309.784 478.752C310.093 478.507 310.437 478.319 310.817 478.189C311.201 478.054 311.604 477.987 312.028 477.987C312.731 477.987 313.368 478.159 313.937 478.503C314.511 478.843 314.968 479.313 315.308 479.915C315.648 480.516 315.819 481.204 315.819 481.979C315.819 482.753 315.642 483.455 315.291 484.083C314.942 484.712 314.452 485.21 313.819 485.578C313.186 485.941 312.446 486.119 311.6 486.112ZM311.594 484.569C312.061 484.569 312.478 484.455 312.846 484.225C313.214 483.997 313.505 483.688 313.718 483.3C313.932 482.913 314.038 482.48 314.038 482.002C314.038 481.535 313.934 481.11 313.724 480.727C313.519 480.344 313.234 480.039 312.87 479.813C312.51 479.588 312.099 479.475 311.636 479.475C311.283 479.475 310.957 479.543 310.657 479.677C310.36 479.812 310.099 479.997 309.873 480.235C309.648 480.472 309.47 480.744 309.339 481.053C309.213 481.357 309.15 481.68 309.15 482.019C309.15 482.474 309.254 482.895 309.464 483.283C309.678 483.67 309.968 483.982 310.336 484.22C310.708 484.453 311.127 484.569 311.594 484.569ZM321.185 473.635C321.727 473.638 322.261 473.737 322.787 473.931C323.313 474.125 323.788 474.441 324.211 474.88C324.638 475.319 324.978 475.912 325.231 476.659C325.489 477.402 325.619 478.327 325.623 479.434C325.623 480.497 325.516 481.444 325.303 482.275C325.089 483.101 324.783 483.799 324.383 484.368C323.987 484.938 323.507 485.37 322.941 485.667C322.376 485.963 321.738 486.112 321.031 486.112C320.307 486.112 319.664 485.969 319.103 485.685C318.541 485.4 318.084 485.006 317.732 484.504C317.38 483.998 317.16 483.417 317.074 482.761H318.883C319.002 483.283 319.243 483.706 319.606 484.03C319.975 484.35 320.449 484.51 321.031 484.51C321.921 484.51 322.615 484.123 323.114 483.348C323.611 482.569 323.863 481.482 323.867 480.087H323.772C323.566 480.426 323.309 480.719 323.001 480.964C322.696 481.21 322.354 481.399 321.974 481.533C321.595 481.668 321.189 481.735 320.758 481.735C320.058 481.735 319.421 481.563 318.847 481.219C318.274 480.876 317.817 480.403 317.477 479.802C317.136 479.201 316.967 478.515 316.967 477.744C316.967 476.977 317.14 476.282 317.489 475.657C317.84 475.032 318.331 474.538 318.96 474.174C319.593 473.807 320.335 473.626 321.185 473.635ZM321.191 475.176C320.728 475.176 320.311 475.291 319.939 475.52C319.571 475.746 319.281 476.052 319.067 476.439C318.853 476.823 318.747 477.25 318.747 477.72C318.747 478.191 318.85 478.618 319.055 479.001C319.265 479.381 319.55 479.683 319.91 479.909C320.273 480.13 320.688 480.241 321.155 480.241C321.504 480.241 321.828 480.173 322.129 480.039C322.429 479.904 322.693 479.719 322.917 479.482C323.143 479.241 323.319 478.968 323.446 478.663C323.572 478.359 323.636 478.038 323.636 477.703C323.636 477.256 323.529 476.841 323.315 476.457C323.105 476.074 322.817 475.766 322.449 475.532C322.081 475.295 321.662 475.176 321.191 475.176ZM333.274 483.668V483.028C333.274 482.569 333.369 482.151 333.559 481.771C333.753 481.387 334.033 481.081 334.402 480.851C334.773 480.618 335.222 480.501 335.748 480.501C336.286 480.501 336.737 480.616 337.101 480.845C337.465 481.075 337.74 481.382 337.926 481.765C338.116 482.148 338.21 482.569 338.21 483.028V483.668C338.21 484.127 338.116 484.548 337.926 484.932C337.736 485.311 337.457 485.617 337.089 485.85C336.725 486.08 336.278 486.194 335.748 486.194C335.215 486.194 334.763 486.08 334.395 485.85C334.027 485.617 333.748 485.311 333.559 484.932C333.369 484.548 333.274 484.127 333.274 483.668ZM334.657 483.028V483.668C334.657 484.008 334.738 484.316 334.9 484.594C335.062 484.87 335.345 485.009 335.748 485.009C336.148 485.009 336.427 484.87 336.585 484.594C336.743 484.316 336.822 484.008 336.822 483.668V483.028C336.822 482.687 336.745 482.379 336.591 482.103C336.44 481.826 336.159 481.688 335.748 481.688C335.352 481.688 335.072 481.826 334.905 482.103C334.739 482.379 334.657 482.687 334.657 483.028ZM327.163 476.718V476.078C327.163 475.619 327.257 475.198 327.448 474.815C327.642 474.431 327.922 474.125 328.29 473.895C328.662 473.666 329.111 473.551 329.637 473.551C330.175 473.551 330.626 473.666 330.99 473.895C331.353 474.125 331.628 474.431 331.814 474.815C332 475.198 332.093 475.619 332.093 476.078V476.718C332.093 477.177 331.998 477.597 331.809 477.982C331.622 478.361 331.346 478.667 330.977 478.9C330.614 479.13 330.167 479.244 329.637 479.244C329.098 479.244 328.646 479.13 328.278 478.9C327.914 478.667 327.637 478.361 327.448 477.982C327.257 477.597 327.163 477.177 327.163 476.718ZM328.551 476.078V476.718C328.551 477.058 328.63 477.366 328.789 477.643C328.951 477.92 329.233 478.058 329.637 478.058C330.032 478.058 330.309 477.92 330.468 477.643C330.63 477.366 330.711 477.058 330.711 476.718V476.078C330.711 475.738 330.634 475.429 330.479 475.153C330.325 474.876 330.044 474.738 329.637 474.738C329.241 474.738 328.961 474.876 328.794 475.153C328.632 475.429 328.551 475.738 328.551 476.078ZM327.726 485.945L336.08 473.801H337.499L329.144 485.945H327.726Z" fill="black"/>
<path d="M323.124 502.948V512.664H321.775L316.834 505.538H316.743V512.664H315.277V502.948H316.635L321.581 510.083H321.671V502.948H323.124ZM327.551 512.811C326.868 512.811 326.271 512.655 325.762 512.342C325.253 512.028 324.857 511.59 324.576 511.027C324.294 510.465 324.153 509.807 324.153 509.053C324.153 508.298 324.294 507.637 324.576 507.07C324.857 506.504 325.253 506.065 325.762 505.752C326.271 505.439 326.868 505.282 327.551 505.282C328.235 505.282 328.832 505.439 329.341 505.752C329.85 506.065 330.246 506.504 330.528 507.07C330.809 507.637 330.951 508.298 330.951 509.053C330.951 509.807 330.809 510.465 330.528 511.027C330.246 511.59 329.85 512.028 329.341 512.342C328.832 512.655 328.235 512.811 327.551 512.811ZM327.556 511.62C327.999 511.62 328.367 511.503 328.657 511.269C328.949 511.035 329.164 510.723 329.303 510.334C329.445 509.945 329.517 509.517 329.517 509.048C329.517 508.584 329.445 508.157 329.303 507.768C329.164 507.376 328.949 507.061 328.657 506.824C328.367 506.587 327.999 506.468 327.556 506.468C327.11 506.468 326.74 506.587 326.446 506.824C326.154 507.061 325.938 507.376 325.795 507.768C325.656 508.157 325.586 508.584 325.586 509.048C325.586 509.517 325.656 509.945 325.795 510.334C325.938 510.723 326.154 511.035 326.446 511.269C326.74 511.503 327.11 511.62 327.556 511.62Z" fill="black" fill-opacity="0.5"/>
<path d="M266.504 546.062C266.504 540.529 270.992 536.043 276.529 536.043H369.26C374.796 536.043 379.285 540.529 379.285 546.062V986.922H266.504V546.062Z" fill="#B91515"/>
<mask id="mask0_207_2182" style="mask-type:luminance" maskUnits="userSpaceOnUse" x="266" y="536" width="114" height="451">
<path d="M266.504 546.062C266.504 540.529 270.992 536.043 276.529 536.043H369.26C374.796 536.043 379.285 540.529 379.285 546.062V986.922H266.504V546.062Z" fill="white"/>
</mask>
<g mask="url(#mask0_207_2182)">
<path d="M379.285 987.757H266.504V986.087H379.285V987.757Z" fill="black"/>
</g>
<path d="M453.227 695.687C452.413 695.687 451.684 695.547 451.044 695.266C450.407 694.985 449.902 694.595 449.531 694.097C449.163 693.595 448.965 693.014 448.938 692.354H450.8C450.825 692.713 450.945 693.026 451.162 693.291C451.384 693.552 451.673 693.754 452.029 693.896C452.384 694.038 452.78 694.11 453.216 694.11C453.694 694.11 454.117 694.026 454.485 693.86C454.857 693.694 455.148 693.463 455.358 693.166C455.567 692.866 455.672 692.52 455.672 692.129C455.672 691.722 455.567 691.363 455.358 691.055C455.151 690.743 454.849 690.497 454.45 690.32C454.054 690.142 453.576 690.053 453.013 690.053H451.988V688.559H453.013C453.465 688.559 453.861 688.478 454.201 688.316C454.545 688.154 454.814 687.928 455.008 687.639C455.201 687.347 455.298 687.005 455.298 686.613C455.298 686.238 455.213 685.912 455.043 685.636C454.876 685.354 454.639 685.135 454.331 684.977C454.026 684.819 453.667 684.74 453.251 684.74C452.856 684.74 452.486 684.813 452.141 684.959C451.801 685.101 451.525 685.307 451.311 685.575C451.097 685.841 450.983 686.159 450.967 686.531H449.192C449.212 685.874 449.406 685.297 449.774 684.799C450.146 684.3 450.637 683.911 451.246 683.631C451.855 683.35 452.531 683.21 453.275 683.21C454.054 683.21 454.726 683.362 455.293 683.667C455.861 683.966 456.301 684.368 456.609 684.87C456.922 685.373 457.076 685.922 457.072 686.519C457.076 687.199 456.886 687.776 456.502 688.251C456.123 688.725 455.617 689.043 454.983 689.205V689.3C455.79 689.422 456.415 689.743 456.859 690.26C457.306 690.779 457.527 691.421 457.523 692.188C457.527 692.856 457.341 693.455 456.965 693.985C456.593 694.515 456.085 694.932 455.44 695.236C454.795 695.536 454.058 695.687 453.227 695.687ZM463.541 683.376V695.521H461.701V685.214H461.63L458.723 687.112V685.357L461.754 683.376H463.541ZM472.335 693.244V692.603C472.335 692.144 472.43 691.726 472.62 691.346C472.814 690.963 473.094 690.656 473.463 690.427C473.835 690.194 474.283 690.077 474.81 690.077C475.348 690.077 475.798 690.191 476.162 690.421C476.526 690.65 476.801 690.957 476.987 691.34C477.177 691.723 477.271 692.144 477.271 692.603V693.244C477.271 693.702 477.177 694.123 476.987 694.507C476.797 694.886 476.518 695.192 476.15 695.425C475.786 695.655 475.339 695.769 474.81 695.769C474.276 695.769 473.825 695.655 473.456 695.425C473.089 695.192 472.81 694.886 472.62 694.507C472.43 694.123 472.335 693.702 472.335 693.244ZM473.718 692.603V693.244C473.718 693.584 473.799 693.892 473.961 694.169C474.123 694.445 474.406 694.584 474.81 694.584C475.209 694.584 475.488 694.445 475.646 694.169C475.805 693.892 475.883 693.584 475.883 693.244V692.603C475.883 692.263 475.806 691.955 475.652 691.678C475.501 691.401 475.221 691.263 474.81 691.263C474.414 691.263 474.133 691.401 473.967 691.678C473.8 691.955 473.718 692.263 473.718 692.603ZM466.224 686.293V685.653C466.224 685.195 466.318 684.773 466.509 684.39C466.703 684.007 466.983 683.7 467.351 683.47C467.723 683.242 468.172 683.126 468.698 683.126C469.236 683.126 469.687 683.242 470.051 683.47C470.414 683.7 470.689 684.007 470.876 684.39C471.061 684.773 471.155 685.195 471.155 685.653V686.293C471.155 686.752 471.059 687.173 470.87 687.557C470.683 687.936 470.407 688.242 470.039 688.475C469.675 688.705 469.228 688.819 468.698 688.819C468.16 688.819 467.707 688.705 467.339 688.475C466.975 688.242 466.698 687.936 466.509 687.557C466.318 687.173 466.224 686.752 466.224 686.293ZM467.612 685.653V686.293C467.612 686.633 467.691 686.941 467.85 687.219C468.012 687.495 468.294 687.634 468.698 687.634C469.094 687.634 469.37 687.495 469.529 687.219C469.691 686.941 469.772 686.633 469.772 686.293V685.653C469.772 685.313 469.695 685.004 469.541 684.728C469.386 684.451 469.105 684.313 468.698 684.313C468.302 684.313 468.022 684.451 467.856 684.728C467.693 685.004 467.612 685.313 467.612 685.653ZM466.787 695.521L475.141 683.376H476.56L468.206 695.521H466.787Z" fill="black"/>
<path d="M452.703 712.523H454.369L456.909 716.94H457.013L459.553 712.523H461.219L457.691 718.425V722.239H456.229V718.425L452.703 712.523ZM463.762 722.386C463.044 722.386 462.426 722.232 461.906 721.926C461.391 721.616 460.992 721.181 460.711 720.621C460.432 720.058 460.293 719.398 460.293 718.643C460.293 717.896 460.432 717.238 460.711 716.67C460.992 716.1 461.384 715.656 461.888 715.336C462.394 715.017 462.985 714.857 463.663 714.857C464.074 714.857 464.472 714.926 464.859 715.061C465.245 715.197 465.591 715.411 465.899 715.701C466.205 715.993 466.447 716.371 466.625 716.835C466.802 717.297 466.89 717.859 466.89 718.519V719.023H461.095V717.96H465.5C465.5 717.587 465.424 717.256 465.272 716.969C465.12 716.677 464.906 716.448 464.631 716.281C464.359 716.113 464.039 716.029 463.672 716.029C463.274 716.029 462.925 716.127 462.628 716.323C462.334 716.516 462.106 716.769 461.944 717.082C461.787 717.392 461.707 717.729 461.707 718.093V718.923C461.707 719.41 461.792 719.824 461.964 720.166C462.137 720.507 462.38 720.769 462.69 720.949C463 721.126 463.362 721.215 463.777 721.215C464.046 721.215 464.291 721.176 464.513 721.1C464.734 721.022 464.925 720.905 465.087 720.749C465.248 720.594 465.371 720.403 465.457 720.175L466.8 720.417C466.693 720.813 466.5 721.159 466.221 721.456C465.946 721.751 465.599 721.979 465.182 722.144C464.767 722.306 464.294 722.386 463.762 722.386ZM473.26 716.731L471.974 716.959C471.92 716.794 471.835 716.638 471.717 716.49C471.604 716.341 471.449 716.219 471.253 716.124C471.056 716.029 470.811 715.982 470.517 715.982C470.115 715.982 469.779 716.072 469.51 716.252C469.241 716.429 469.107 716.658 469.107 716.94C469.107 717.183 469.197 717.38 469.377 717.528C469.558 717.677 469.849 717.799 470.251 717.893L471.409 718.159C472.08 718.314 472.58 718.553 472.909 718.876C473.238 719.198 473.403 719.617 473.403 720.132C473.403 720.569 473.276 720.958 473.023 721.3C472.773 721.638 472.423 721.903 471.974 722.097C471.528 722.29 471.01 722.386 470.421 722.386C469.605 722.386 468.939 722.212 468.423 721.864C467.908 721.513 467.591 721.015 467.474 720.37L468.846 720.161C468.931 720.518 469.107 720.789 469.373 720.972C469.639 721.153 469.985 721.243 470.412 721.243C470.878 721.243 471.249 721.146 471.528 720.953C471.807 720.757 471.945 720.518 471.945 720.237C471.945 720.01 471.86 719.818 471.689 719.663C471.522 719.508 471.264 719.391 470.915 719.312L469.681 719.041C469.001 718.887 468.498 718.64 468.172 718.301C467.849 717.963 467.688 717.535 467.688 717.016C467.688 716.586 467.808 716.209 468.048 715.887C468.289 715.564 468.621 715.313 469.046 715.133C469.469 714.949 469.955 714.857 470.503 714.857C471.29 714.857 471.911 715.028 472.363 715.37C472.816 715.708 473.115 716.162 473.26 716.731Z" fill="black" fill-opacity="0.5"/>
<path d="M406.854 755.638C406.854 750.104 411.342 745.618 416.879 745.618H509.61C515.146 745.618 519.635 750.104 519.635 755.638V986.922H406.854V755.638Z" fill="#0BB44E"/>
<mask id="mask1_207_2182" style="mask-type:luminance" maskUnits="userSpaceOnUse" x="406" y="745" width="114" height="242">
<path d="M406.854 755.638C406.854 750.104 411.342 745.618 416.879 745.618H509.61C515.146 745.618 519.635 750.104 519.635 755.638V986.922H406.854V755.638Z" fill="white"/>
</mask>
<g mask="url(#mask1_207_2182)">
<path d="M519.635 987.757H406.854V986.087H519.635V987.757Z" fill="black"/>
</g>
<path d="M1288.99 231.282V216.709H1294.18C1295.31 216.709 1296.25 216.903 1297 217.292C1297.74 217.681 1298.3 218.22 1298.68 218.907C1299.05 219.591 1299.23 220.38 1299.23 221.277C1299.23 222.169 1299.05 222.954 1298.67 223.633C1298.3 224.306 1297.74 224.83 1296.99 225.205C1296.25 225.58 1295.3 225.767 1294.18 225.767H1290.24V223.874H1293.98C1294.69 223.874 1295.27 223.773 1295.71 223.569C1296.16 223.364 1296.5 223.068 1296.71 222.679C1296.92 222.29 1297.02 221.823 1297.02 221.277C1297.02 220.727 1296.91 220.25 1296.7 219.847C1296.49 219.443 1296.16 219.135 1295.7 218.922C1295.26 218.703 1294.68 218.594 1293.95 218.594H1291.19V231.282H1288.99ZM1296.18 224.707L1299.79 231.282H1297.28L1293.75 224.707H1296.18ZM1305.2 231.503C1304.18 231.503 1303.28 231.268 1302.52 230.799C1301.75 230.329 1301.16 229.672 1300.74 228.827C1300.32 227.983 1300.11 226.996 1300.11 225.867C1300.11 224.733 1300.32 223.742 1300.74 222.892C1301.16 222.043 1301.75 221.384 1302.52 220.914C1303.28 220.445 1304.18 220.21 1305.2 220.21C1306.23 220.21 1307.13 220.445 1307.89 220.914C1308.65 221.384 1309.25 222.043 1309.67 222.892C1310.09 223.742 1310.3 224.733 1310.3 225.867C1310.3 226.996 1310.09 227.983 1309.67 228.827C1309.25 229.672 1308.65 230.329 1307.89 230.799C1307.13 231.268 1306.23 231.503 1305.2 231.503ZM1305.21 229.717C1305.88 229.717 1306.43 229.541 1306.87 229.19C1307.3 228.839 1307.63 228.372 1307.84 227.788C1308.04 227.205 1308.15 226.562 1308.15 225.86C1308.15 225.163 1308.04 224.522 1307.84 223.939C1307.63 223.35 1307.3 222.878 1306.87 222.522C1306.43 222.167 1305.88 221.989 1305.21 221.989C1304.54 221.989 1303.98 222.167 1303.55 222.522C1303.11 222.878 1302.78 223.35 1302.57 223.939C1302.36 224.522 1302.25 225.163 1302.25 225.86C1302.25 226.562 1302.36 227.205 1302.57 227.788C1302.78 228.372 1303.11 228.839 1303.55 229.19C1303.98 229.541 1304.54 229.717 1305.21 229.717ZM1318.6 226.749V220.352H1320.74V231.282H1318.65V229.39H1318.54C1318.28 229.973 1317.88 230.459 1317.33 230.848C1316.77 231.233 1316.09 231.425 1315.26 231.425C1314.56 231.425 1313.94 231.271 1313.4 230.962C1312.86 230.649 1312.44 230.187 1312.13 229.574C1311.83 228.963 1311.68 228.206 1311.68 227.304V220.352H1313.81V227.048C1313.81 227.793 1314.01 228.386 1314.43 228.827C1314.84 229.269 1315.37 229.489 1316.03 229.489C1316.43 229.489 1316.83 229.39 1317.23 229.19C1317.63 228.991 1317.95 228.69 1318.21 228.286C1318.48 227.883 1318.61 227.371 1318.6 226.749ZM1324.73 224.793V231.282H1322.6V220.352H1324.64V222.131H1324.78C1325.03 221.552 1325.42 221.087 1325.96 220.736C1326.5 220.385 1327.18 220.21 1328 220.21C1328.75 220.21 1329.4 220.366 1329.96 220.679C1330.53 220.988 1330.95 221.448 1331.26 222.06C1331.57 222.672 1331.73 223.429 1331.73 224.33V231.282H1329.6V224.586C1329.6 223.794 1329.39 223.175 1328.98 222.729C1328.56 222.278 1328 222.053 1327.28 222.053C1326.78 222.053 1326.35 222.16 1325.96 222.373C1325.58 222.586 1325.28 222.9 1325.05 223.312C1324.84 223.72 1324.73 224.214 1324.73 224.793ZM1337.68 231.496C1336.79 231.496 1336.01 231.271 1335.31 230.82C1334.62 230.364 1334.08 229.717 1333.68 228.877C1333.3 228.033 1333.1 227.02 1333.1 225.839C1333.1 224.657 1333.3 223.647 1333.69 222.807C1334.09 221.967 1334.64 221.325 1335.33 220.879C1336.02 220.433 1336.81 220.21 1337.68 220.21C1338.37 220.21 1338.91 220.324 1339.32 220.551C1339.74 220.774 1340.07 221.035 1340.29 221.334C1340.53 221.633 1340.71 221.896 1340.83 222.124H1340.96V216.709H1343.09V231.282H1341.01V229.582H1340.83C1340.71 229.814 1340.53 230.08 1340.28 230.379C1340.04 230.678 1339.71 230.938 1339.3 231.161C1338.88 231.384 1338.34 231.496 1337.68 231.496ZM1338.14 229.681C1338.75 229.681 1339.27 229.52 1339.7 229.197C1340.12 228.87 1340.44 228.417 1340.67 227.838C1340.88 227.259 1341 226.586 1341 225.817C1341 225.058 1340.89 224.394 1340.67 223.825C1340.45 223.255 1340.13 222.812 1339.71 222.494C1339.29 222.176 1338.76 222.017 1338.14 222.017C1337.5 222.017 1336.97 222.183 1336.54 222.515C1336.11 222.847 1335.79 223.3 1335.57 223.874C1335.36 224.449 1335.25 225.096 1335.25 225.817C1335.25 226.548 1335.36 227.205 1335.58 227.788C1335.8 228.372 1336.12 228.834 1336.55 229.176C1336.98 229.513 1337.51 229.681 1338.14 229.681ZM1349.41 231.282V229.688L1354.33 224.579C1354.86 224.024 1355.3 223.538 1355.64 223.12C1355.99 222.698 1356.25 222.297 1356.41 221.918C1356.59 221.538 1356.67 221.135 1356.67 220.708C1356.67 220.224 1356.56 219.806 1356.33 219.455C1356.11 219.1 1355.79 218.827 1355.4 218.637C1355 218.443 1354.56 218.345 1354.07 218.345C1353.54 218.345 1353.09 218.452 1352.7 218.665C1352.31 218.879 1352.01 219.18 1351.8 219.569C1351.59 219.958 1351.49 220.414 1351.49 220.936H1349.39C1349.39 220.048 1349.59 219.273 1350 218.609C1350.41 217.944 1350.97 217.43 1351.68 217.064C1352.4 216.694 1353.21 216.509 1354.11 216.509C1355.03 216.509 1355.83 216.692 1356.53 217.057C1357.23 217.418 1357.78 217.911 1358.18 218.537C1358.57 219.159 1358.76 219.861 1358.76 220.644C1358.76 221.185 1358.66 221.714 1358.46 222.231C1358.26 222.748 1357.91 223.324 1357.41 223.96C1356.92 224.591 1356.22 225.357 1355.34 226.258L1352.44 229.29V229.397H1359V231.282H1349.41Z" fill="black" fill-opacity="0.5"/>
</g>
<defs>
<clipPath id="clip0_207_2182">
<rect width="1203" height="855" fill="white" transform="translate(198 172)"/>
</clipPath>
</defs>
</svg>
